<svg id="Capa_1" xmlns="http://www.w3.org/2000/svg" viewBox="0 0 60 60"><style>.st1{fill:#00205b}</style><circle cx="30" cy="30" r="30" fill="#b1b3cb"/><path class="st1" d="M39.5 7.5h-19c-1.8 0-3.3 1.5-3.3 3.3v38.5c0 1.8 1.5 3.3 3.3 3.3h18.9c1.8 0 3.3-1.5 3.3-3.3V10.7c0-1.8-1.4-3.2-3.2-3.2z"/><path d="M18.7 13.4h22.6v28.5H18.7zm1.8-4.5h18.9c1 0 1.8.8 1.8 1.8V12H18.7v-1.2c0-1 .8-1.9 1.8-1.9zm19 42.2h-19c-1 0-1.8-.8-1.8-1.8v-5.8h22.6v5.8c0 .9-.8 1.8-1.8 1.8z" fill="#fff"/><path class="st1" d="M30 44.3c-1.7 0-3 1.4-3 3s1.4 2.9 3 2.9 3-1.4 3-3-1.3-2.9-3-2.9zm0 4.5c-.8 0-1.5-.7-1.5-1.5s.7-1.5 1.5-1.5 1.5.7 1.5 1.5c0 .9-.7 1.5-1.5 1.5zm-3-37.6h3c.5 0 .8-.3.8-.8s-.3-.8-.8-.8h-3c-.5 0-.8.3-.8.8.1.5.3.8.8.8zm5.3 0h.7c.5 0 .8-.3.8-.8s-.3-.8-.8-.8h-.8c-.5 0-.8.3-.8.8.1.5.4.8.9.8z"/><path d="M36 23.2c2.1 0 3.7-1.7 3.7-3.7S38 15.8 36 15.8H24c-2.1 0-3.7 1.7-3.7 3.7v7.8l4.1-4.1H36zm-14.2.5v-4.2c0-1.2 1-2.3 2.3-2.3h12.1c1.2 0 2.3 1 2.3 2.3 0 1.2-1 2.3-2.3 2.3H23.7l-1.9 1.9zM36 28.5H24c-2.1 0-3.7 1.7-3.7 3.7s1.7 3.7 3.7 3.7h11.7l4.1 4.1v-7.8c0-2.1-1.7-3.7-3.8-3.7zm2.2 7.9l-1.9-1.9H24c-1.2 0-2.3-1-2.3-2.3 0-1.2 1-2.3 2.3-2.3h12.1c1.2 0 2.3 1 2.3 2.3v4.2h-.2z" fill="#ffcd00"/></svg>