<svg id="Layer_1" xmlns="http://www.w3.org/2000/svg" viewBox="0 0 60 60"><style>.st2{fill:#00205b}.st3{fill:#fff}.st4{fill:#ffcd00}</style><circle cx="30" cy="30" r="30" fill="#b2bcce"/><path d="M46.7 38.5c-1.8 0-6.5 1.2-8.2 1.8h-.1l-.1.1c-.8.6-1.9.8-3.4.8-2.4 0-5.6-.7-10-1.9-.4-.1-.8-.7-.6-1.2.1-.4.7-.8 1.2-.6 8.8 2.6 11.1 1.9 11.7 1.5.1-.1.2-.3.2-.6 0-1.2-1.7-2-5.7-2.8-1.8-.3-3.3-1-4.4-1.7-1.3-.7-2.5-1.2-3.8-1.2-2.2 0-4.4.6-5 .8l-1.1 7.7c3.1 1.6 12.1 5.5 15.5 5.5 3.1 0 10.7-3.7 15.1-5.9.9-.4 1.7-.9 2.4-1-.5-.8-2.1-1.3-3.7-1.3z" fill="none"/><path class="st2" d="M52.3 19.3l-3.8-7.5c-.2-.3-.6-.6-.9-.6H27.3c-.3 0-.7.2-.8.6l-3.8 7.5c0 .1 0 .1-.1.1v11.3c-1.7.1-3.3.4-4.2.7-.3-1-1-1.8-2.1-1.9L8.7 28c-.3-.1-.6 0-.8.2s-.3.6-.3.8v15c0 .6.4 1 1 1h5.8c1.1 0 2.1-.8 2.6-1.8 2.1 1 11.8 5.5 15.9 5.5 3.6 0 11.1-3.7 16-6.2 1.2-.6 2.4-1.1 3-1.5.3-.1.6-.4.6-.8V19.6c-.1-.1-.1-.3-.2-.3z"/><path class="st3" d="M15.3 42.2c-.1.4-.4.8-.9.8H9.5V30.2l6.5 1.2c.4.1.8.6.8 1l-1.5 9.8z"/><path class="st2" d="M47.2 13.2l2.8 5.6h-7.1l-1.5-5.6zm-11.8 0h4.1l1.4 5.6h-7zm-1.7 7.5h7.5v3.7h-7.5zm-5.8-7.5h5.6l-1.4 5.6h-7.2z"/><path class="st3" d="M48.1 40.9c-4.5 2.2-12 5.9-15.1 5.9-3.4 0-12.3-3.9-15.5-5.5l1.1-7.7c.7-.2 2.8-.8 5-.8 1.3 0 2.5.6 3.8 1.2 1.2.6 2.6 1.2 4.4 1.7 4 .8 5.7 1.7 5.7 2.8 0 .2-.1.3-.2.6-.6.4-2.9 1.2-11.7-1.5-.6-.1-1 .1-1.2.6-.1.6.1 1 .6 1.2 4.4 1.2 7.6 1.9 10 1.9 1.5 0 2.6-.3 3.4-.8l.1-.1h.1c1.7-.6 6.4-1.8 8.2-1.8 1.5 0 3.1.4 3.6 1.3-.7.1-1.4.5-2.3 1z"/><path class="st2" d="M50.5 37.4c-1-.6-2.2-.9-3.7-.9-1.8 0-5.6 1-7.5 1.6-.2-2.7-3.7-3.7-7.3-4.4-1.7-.3-2.8-.9-3.9-1.5-1.2-.6-2.4-1.1-3.7-1.2V20.7h7.5v4.6c0 .6.4 1 1 1h9.3c.6 0 1-.4 1-1v-4.6h7.5l-.2 16.7z"/><path class="st4" d="M33.7 20.7h7.5v3.7h-7.5z"/><path class="st4" d="M43.1 25.3c0 .6-.4 1-1 1h-9.3c-.6 0-1-.4-1-1v-4.6h-7.4V31c1.3.1 2.5.7 3.7 1.2 1.1.6 2.4 1.2 3.9 1.5 3.6.7 7.1 1.7 7.3 4.4 1.9-.6 5.7-1.6 7.5-1.6 1.5 0 2.8.3 3.7.9l.1-16.7h-7.5v4.6zm6.9-6.5l-2.8-5.6h-5.8l1.5 5.6zm-10.5-5.6h-4.1l-1.5 5.6h7zm-6 0h-5.6l-3 5.6h7.2z"/></svg>