<svg id="Layer_1" xmlns="http://www.w3.org/2000/svg" viewBox="0 0 60 60"><style>.st2{fill:#00205b}</style><circle cx="30" cy="30" r="30" fill="#b1b3cb"/><path d="M44.9 37.8c-1 0-1.9 1.2-1.9 2.3v3.1c0 .4-.3.7-.7.7s-.7-.3-.7-.7v-6.1c0-1.1-.7-2.3-1.8-2.3-1 0-1.9 1.2-1.9 2.3v4.6c0 .4-.3.7-.7.7s-.7-.3-.7-.7v-7.6c0-1.1-.7-2.3-1.8-2.3-1 0-1.9 1.2-1.9 2.3V41c0 .4-.3.7-.7.7-.4 0-.7-.3-.7-.7V26.5c0-1.1-.7-2.3-1.8-2.3-1 0-1.9 1.2-1.9 2.3v18.9c0 .4-.3.7-.7.7-.4 0-.7-.3-.7-.7 0-1.9-1.7-6.1-3.5-7.9-.9-.8-2.4-.8-3.1-.3-.7.7-.1 1.8.4 2.4 1.7 2.3 2.5 6.9 2.9 9.9.1.3 1.6 7.8 1.9 9.9 1.8.3 3.7.5 5.6.5 6.2 0 11.9-1.9 16.7-5.1V40.2c-.5-1.2-1.2-2.4-2.3-2.4z" fill="#fff"/><path class="st2" d="M45.7 36.6c-.7 0-1.4.3-1.9.7 0-1.8-1.3-3.8-3.4-3.8-.7 0-1.4.3-1.9.7 0-1.8-1.3-3.8-3.4-3.8-.7 0-1.4.3-1.9.7v-4.6c0-1.8-1.3-3.8-3.4-3.8-2 0-3.5 1.9-3.5 3.8v13.8c-.7-1.4-1.5-2.8-2.5-3.7-1.3-1.3-3.7-1.5-5.1-.4-.4.4-1.7 1.8.1 4.4 1.5 2.1 2.2 6.4 2.7 9.3 0 .3 1.2 6.6 1.8 9.2.5.1 1 .2 1.6.3-.4-2.1-1.9-9.5-1.9-9.9-.4-3-1.2-7.6-2.9-9.9-.4-.6-1-1.7-.4-2.4.7-.5 2.2-.5 3.1.3 1.8 1.8 3.5 5.9 3.5 7.9 0 .4.3.7.7.7.4 0 .7-.3.7-.7V26.7c0-1.1 1-2.3 1.9-2.3 1 0 1.8 1.2 1.8 2.3v14.5c0 .4.3.7.7.7.4 0 .7-.3.7-.7v-6.9c0-1.1 1-2.3 1.9-2.3 1 0 1.8 1.2 1.8 2.3v7.6c0 .4.3.7.7.7s.7-.3.7-.7v-4.6c0-1.1 1-2.3 1.9-2.3 1 0 1.8 1.2 1.8 2.3v6.1c0 .4.3.7.7.7s.7-.3.7-.7v-3.1c0-1.1 1-2.3 1.9-2.3 1 0 1.8 1.2 1.8 2.3V55c.5-.3 1-.7 1.5-1.1V40.4c.9-1.8-.5-3.8-2.5-3.8z"/><path class="st2" d="M36.4 49.4c.4 0 .7-.3.7-.7s-.3-.7-.7-.7h-2.3c-.4 0-.7.3-.7.7s.3.7.7.7h2.3zm.8 1.6h-3.8c-.4 0-.7.3-.7.7s.3.7.7.7h3.8c.4 0 .7-.3.7-.7s-.2-.7-.7-.7z"/><path d="M14.4 13.6c1.6 0 3.1-1.3 3.1-3.1 0-1.6-1.3-3.1-3.1-3.1-1.7.1-3.1 1.4-3.1 3.1 0 1.7 1.4 3.1 3.1 3.1zm0-4.6c.8 0 1.5.7 1.5 1.5s-.7 1.5-1.5 1.5-1.5-.7-1.5-1.5.6-1.5 1.5-1.5zm7.5 4.6c1.6 0 3.1-1.3 3.1-3.1s-1.3-3-3.1-3c-1.6 0-3.1 1.3-3.1 3.1.1 1.6 1.5 3 3.1 3zm0-4.6c.8 0 1.5.7 1.5 1.5s-.7 1.5-1.5 1.5-1.5-.7-1.5-1.5.7-1.5 1.5-1.5zm7.7 4.6c1.6 0 3.1-1.3 3.1-3.1s-1.4-3-3.1-3-3.1 1.3-3.1 3.1c0 1.6 1.4 3 3.1 3zm0-4.6c.8 0 1.5.7 1.5 1.5s-.7 1.5-1.5 1.5-1.5-.7-1.5-1.5.6-1.5 1.5-1.5zM14.4 21.2c1.6 0 3.1-1.3 3.1-3.1 0-1.6-1.3-3.1-3.1-3.1-1.6 0-3.1 1.3-3.1 3.1s1.4 3.1 3.1 3.1zm0-4.5c.8 0 1.5.7 1.5 1.5s-.7 1.5-1.5 1.5-1.5-.7-1.5-1.5.6-1.5 1.5-1.5zm7.5 4.5c1.6 0 3.1-1.3 3.1-3.1 0-1.6-1.3-3.1-3.1-3.1-1.6 0-3.1 1.3-3.1 3.1.1 1.8 1.5 3.1 3.1 3.1zm0-4.5c.8 0 1.5.7 1.5 1.5s-.7 1.5-1.5 1.5-1.5-.7-1.5-1.5.7-1.5 1.5-1.5zm7.7 4.5c1.6 0 3.1-1.3 3.1-3.1 0-1.6-1.3-3.1-3.1-3.1s-3.1 1.3-3.1 3.1 1.4 3.1 3.1 3.1zm0-4.5c.8 0 1.5.7 1.5 1.5s-.7 1.5-1.5 1.5-1.5-.7-1.5-1.5.6-1.5 1.5-1.5zm-15.2 6c-1.6 0-3.1 1.3-3.1 3.1 0 1.7 1.3 3.1 3.1 3.1s3.1-1.3 3.1-3.1c-.1-1.7-1.5-3.1-3.1-3.1zm0 4.6c-.8 0-1.5-.7-1.5-1.5s.7-1.5 1.5-1.5 1.5.7 1.5 1.5-.7 1.5-1.5 1.5zm7.5 1.6c1.6 0 3.1-1.3 3.1-3.1 0-1.7-1.3-3.1-3.1-3.1-1.6 0-3.1 1.3-3.1 3.1.1 1.7 1.5 3.1 3.1 3.1zm0-4.6c.8 0 1.5.7 1.5 1.5s-.7 1.5-1.5 1.5-1.5-.7-1.5-1.5.7-1.5 1.5-1.5z" fill="#ffcd00"/></svg>