<svg id="Layer_1" xmlns="http://www.w3.org/2000/svg" viewBox="0 0 60 60"><style>.st1{fill:#00205b}.st3{fill:#ffcd00}</style><circle cx="30" cy="30" r="30" fill="#b1b3cb"/><path class="st1" d="M39.5 7.5H20.6c-1.8 0-3.3 1.5-3.3 3.3v38.4c0 1.8 1.5 3.3 3.3 3.3h18.9c1.8 0 3.3-1.5 3.3-3.3V10.8c0-1.8-1.5-3.3-3.3-3.3z"/><path d="M41.3 49.2c0 1-.8 1.8-1.8 1.8H20.6c-1 0-1.8-.8-1.8-1.8v-5.7h22.5v5.7zM18.8 13.5h22.5V42H18.8zM41.3 12H18.8v-1.2c0-1 .8-1.8 1.8-1.8h18.9c1 0 1.8.8 1.8 1.8V12z" fill="#fff"/><path class="st3" d="M21.2 37.7h18.3c.5 0 .8-.3.8-.8V24.7c0-.5-.3-.8-.8-.8H21.2c-.5 0-.8.3-.8.8v12.2c.1.4.4.8.8.8zm.8-1.6v-6.8h16.8v6.9L22 36.1zm16.8-10.7v2.3H22v-2.3h16.8z"/><path class="st3" d="M36.5 33.1H35c-.5 0-.8.3-.8.8 0 .4.3.8.8.8h1.5c.4 0 .8-.3.8-.8s-.4-.8-.8-.8zm-5.4 0h-1.5c-.4 0-.8.3-.8.8 0 .4.3.8.8.8h1.5c.4 0 .8-.3.8-.8s-.3-.8-.8-.8zm-5.3 0h-1.5c-.5 0-.8.3-.8.8 0 .4.3.8.8.8h1.5c.5 0 .8-.3.8-.8s-.3-.8-.8-.8zM14.3 11C13 11 12 10 12 8.7c0-1-1.5-1-1.5 0 0 1.3-1 2.3-2.2 2.3-1 0-1 1.5 0 1.5 1.3 0 2.2 1 2.2 2.2 0 1 1.5 1 1.5 0 0-1.3 1-2.3 2.3-2.3 1.1.1 1.1-1.4 0-1.4zm-3 1.5c-.2-.3-.4-.5-.8-.8.3-.2.5-.4.8-.8.2.3.4.5.8.8-.3.2-.5.5-.8.8zm38.9 7.6h-.8v-.8c0-.5-.3-.8-.8-.8-.4 0-.8.3-.8.8v.8H47c-.4 0-.8.3-.8.8s.3.8.8.8h.8v.8c0 .5.3.8.8.8s.8-.3.8-.8v-.8h.8c.5 0 .8-.3.8-.8s-.3-.8-.8-.8zM12.8 40.7c-.4 0-.8.3-.8.8 0 .4.3.8.8.8s.8-.3.8-.8c0-.6-.3-.8-.8-.8zM9 26.9c-.4 0-.8.3-.8.8 0 .4.3.8.8.8s.8-.3.8-.8-.3-.8-.8-.8zm37.4 7.7c-.4 0-.8.3-.8.8 0 .4.3.8.8.8s.8-.3.8-.8-.3-.8-.8-.8z"/><circle class="st3" cx="51.8" cy="41.4" r=".7"/><path class="st1" d="M30 50.2c1.7 0 3-1.3 3-3s-1.3-3-3-3c-1.6 0-3 1.3-3 3s1.4 3 3 3zm0-4.4c.8 0 1.5.7 1.5 1.5s-.7 1.5-1.5 1.5-1.5-.7-1.5-1.5c0-.9.7-1.5 1.5-1.5zm0-36h-3c-.5 0-.8.3-.8.8s.3.8.8.8h3c.5 0 .8-.3.8-.8s-.3-.8-.8-.8zm3 0h-.8c-.4 0-.8.3-.8.8s.3.8.8.8h.8c.5 0 .8-.3.8-.8s-.3-.8-.8-.8z"/></svg>