<?xml version="1.0" encoding="utf-8"?>
<!-- Generator: Adobe Illustrator 22.0.1, SVG Export Plug-In . SVG Version: 6.00 Build 0)  -->
<svg version="1.1" id="OnTrac_Logo" xmlns="http://www.w3.org/2000/svg" xmlns:xlink="http://www.w3.org/1999/xlink" x="0px"
	 y="0px" viewBox="0 0 200 68" style="enable-background:new 0 0 200 68;" xml:space="preserve">
<style type="text/css">
	.st0{display:none;}
	.st1{display:inline;}
	.st2{fill:#00205C;}
</style>
<g id="Tagline_International" class="st0">
	<g class="st1">
		<polygon id="Tagline_Mail_l" class="st2" points="350.5,208.1 354.6,208.1 347.3,242.6 343.1,242.6 		"/>
		<polygon id="Tagline_Mail_i_Tittle" class="st2" points="326.4,208.1 330.8,208.1 329.9,212.3 325.5,212.3 		"/>
		<polygon id="Tagline_Mail_i_Stem" class="st2" points="324.3,218.5 328.4,218.5 323.3,242.6 319.2,242.6 		"/>
		<path class="st2" d="M293.3,242.8c-3.9,0-6.3-2.5-6.3-6.4c0-6.5,4.1-9.3,12.7-9.3c0.8,0,1.7,0.1,2.6,0.1c0.2-1.2,0.4-2.3,0.4-3.2
			c0-2-1.3-3.1-3.9-3.1c-2.6,0-4.1,1.2-4.4,3.8H290c1-4.8,3.7-6.9,8.8-6.9c5.5,0,8.1,2,8.1,6.1c0,1.1-0.2,2.5-0.6,4.4l-2,9.2
			c-0.3,1.5-0.6,3.2-0.7,4.9h-4.1l0.6-3.7C298.4,241.5,296.1,242.8,293.3,242.8z M300.8,230.1c-6.5,0-9.6,1.8-9.6,5.9
			c0,2.2,1.3,3.4,3.4,3.4c3.8,0,6.3-3.2,7.2-9.3C301.4,230.1,301.1,230.1,300.8,230.1z"/>
		<path id="Tagline_Mail_M" class="st2" d="M242.1,208.1h7.6l1.9,20.5c0.2,2.5,0.3,4.8,0.3,7c0,1.3,0,2.7-0.1,4h0.3
			c0.7-2.9,1.5-5.2,2.3-6.8l12.5-24.7h7.7l-7.3,34.5H263l5.3-24.8c0.3-1.5,0.9-3.9,1.8-7.4h-0.4l-16.1,32.2h-4.8l-2.3-25.4
			c-0.2-1.3-0.2-3.6-0.4-7H246l-6.9,32.4h-4.3L242.1,208.1z"/>
	</g>
	<g class="st1">
		<polygon id="Tagline_International_l" class="st2" points="186.7,208.1 190.8,208.1 183.5,242.6 179.3,242.6 		"/>
		<path class="st2" d="M153.5,242.8c-3.9,0-6.3-2.5-6.3-6.4c0-6.5,4.1-9.3,12.7-9.3c0.8,0,1.7,0.1,2.6,0.1c0.2-1.2,0.4-2.3,0.4-3.2
			c0-2-1.3-3.1-3.9-3.1c-2.6,0-4.1,1.2-4.5,3.8h-4.4c1-4.8,3.7-6.9,8.8-6.9c5.5,0,8.1,2,8.1,6.1c0,1.1-0.2,2.5-0.6,4.4l-2,9.2
			c-0.3,1.5-0.6,3.2-0.7,4.9h-4.1l0.6-3.7C158.5,241.5,156.3,242.8,153.5,242.8z M160.9,230.1c-6.5,0-9.6,1.8-9.6,5.9
			c0,2.2,1.3,3.4,3.4,3.4c3.8,0,6.3-3.2,7.2-9.3C161.6,230.1,161.3,230.1,160.9,230.1z"/>
		<path id="Tagline_International_n_2" class="st2" d="M118.2,224c0.4-1.7,0.7-3.6,1-5.5h3.8l-0.7,3.5c1.9-2.7,4.3-4.1,7.4-4.1
			c3.2,0,5.1,2,5.1,5.5c0,0.8-0.2,1.9-0.5,3.4l-3.3,15.7h-4.1l3.4-16.1c0.2-1,0.3-1.7,0.3-2.3c0-2-1-3-2.8-3c-4,0-5.7,3.4-7.1,10
			l-2.4,11.4h-4.1L118.2,224z"/>
		<path class="st2" d="M83.5,229.2c0.7-3.3,1.5-5.5,2.1-6.5c1.8-3.2,4.4-4.7,8.2-4.7c5.2,0,8.1,2.8,8.1,7.6c0,1.5-0.2,3.5-0.8,6
			c-0.7,3.3-1.6,5.7-2.3,7c-1.8,3.2-4.3,4.6-8.3,4.6c-4.9,0-7.9-3-7.9-7.5C82.6,234.2,82.9,232,83.5,229.2z M89.3,224.1
			c-0.3,0.6-1,2.6-1.8,5.8c-0.5,2.2-0.8,4.1-0.8,5.7c0,2.6,1.4,4,4,4c2.1,0,3.4-0.9,4.4-2.8c0.5-0.9,1.1-2.9,1.8-6
			c0.5-2.3,0.8-4,0.8-5.2c0-2.9-1.3-4.5-4-4.5C91.7,221.3,90.4,222.2,89.3,224.1z"/>
		<polygon id="Tagline_International_i_Stem" class="st2" points="63.8,218.5 67.9,218.5 62.8,242.6 58.6,242.6 		"/>
		<polygon id="Tagline_International_i_Tittle" class="st2" points="65.9,208.1 70.3,208.1 69.4,212.3 65,212.3 		"/>
		<path id="Tagline_International_t_2" class="st2" d="M38.3,242.6c-3.2,0-4.8-1.3-4.8-4.1c0-1,0.2-2.2,0.5-3.6l2.9-13.5H33l0.6-2.8
			h3.9l1-4.8l4.5-1.5l-1.3,6.3h4.6l-0.6,2.8H41l-3.1,14.5c-0.2,0.8-0.2,1.3-0.2,1.6c0,1.5,0.8,2,3,2c0.3,0,0.7-0.1,1.1-0.1l-0.7,3.2
			L38.3,242.6L38.3,242.6z"/>
		<path class="st2" d="M7.2,242.8c-3.9,0-6.3-2.5-6.3-6.4c0-6.5,4.1-9.3,12.7-9.3c0.8,0,1.7,0.1,2.6,0.1c0.2-1.2,0.4-2.3,0.4-3.2
			c0-2-1.3-3.1-3.9-3.1c-2.6,0-4.1,1.2-4.4,3.8H3.9c1-4.8,3.7-6.9,8.8-6.9c5.5,0,8.1,2,8.1,6.1c0,1.1-0.2,2.5-0.6,4.4l-2,9.2
			c-0.3,1.5-0.6,3.2-0.7,4.9h-4.1l0.6-3.7C12.2,241.5,10,242.8,7.2,242.8z M14.6,230.1c-6.5,0-9.6,1.8-9.6,5.9
			c0,2.2,1.3,3.4,3.4,3.4c3.8,0,6.3-3.2,7.2-9.3C15.3,230.1,15,230.1,14.6,230.1z"/>
		<path id="Tagline_International_n_1" class="st2" d="M-28.1,224c0.4-1.7,0.7-3.6,1-5.5h3.9l-0.7,3.5c1.9-2.7,4.3-4.1,7.4-4.1
			c3.2,0,5.1,2,5.1,5.5c0,0.8-0.2,1.9-0.5,3.4l-3.3,15.7h-4.1l3.4-16.1c0.2-1,0.3-1.7,0.3-2.3c0-2-1-3-2.8-3c-4,0-5.7,3.4-7.1,10
			l-2.4,11.4H-32L-28.1,224z"/>
		<path id="Tagline_International_r" class="st2" d="M-56.3,223.9c0.4-1.8,0.6-3.6,0.8-5.3h4l-0.7,4c1.5-2.9,3.6-4.3,6.6-4.3
			c0.4,0,0.8,0.1,1.3,0.1l-0.8,3.7c-0.3,0-0.5,0-0.8,0c-4.5,0-6.2,2.4-7.5,8.2l-2.7,12.2h-4.1L-56.3,223.9z"/>
		<path class="st2" d="M-84,243.1c-5,0-8-2.8-8-7.5c0-1.5,0.3-3.6,0.9-6.2c0.7-3.2,1.4-5.5,2.2-6.7c1.8-3.3,4.4-4.7,8.3-4.7
			c5.2,0,8,2.7,8,7.8c0,1.3-0.3,3.2-0.8,5.6h-13.9c-0.3,1.6-0.5,3-0.5,4.4c0,2.7,1.5,4.1,4.5,4.1c2.4,0,3.9-1.6,4.7-4.9h4.3
			C-75.5,240.6-78.5,243.1-84,243.1z M-77,228.3c0.1-1,0.2-1.8,0.2-2.5c0-3-1.3-4.5-3.9-4.5c-3.3,0-4.8,2.2-5.9,7.1h9.6
			C-77,228.4-77,228.3-77,228.3z"/>
		<path id="Tagline_International_t_1" class="st2" d="M-112.3,242.6c-3.2,0-4.8-1.3-4.8-4.1c0-1,0.2-2.2,0.5-3.6l2.9-13.5h-3.9
			l0.6-2.8h3.9l1-4.8l4.5-1.5l-1.3,6.3h4.6l-0.6,2.8h-4.7l-3.1,14.5c-0.2,0.8-0.2,1.3-0.2,1.6c0,1.5,0.8,2,3,2
			c0.3,0,0.7-0.1,1.2-0.1l-0.7,3.2L-112.3,242.6L-112.3,242.6z"/>
		<path id="Tagline_International_n" class="st2" d="M-146.5,224c0.4-1.7,0.7-3.6,1-5.5h3.9l-0.7,3.5c1.9-2.7,4.3-4.1,7.4-4.1
			c3.2,0,5.1,2,5.1,5.5c0,0.8-0.2,1.9-0.5,3.4l-3.3,15.7h-4.1l3.4-16.1c0.2-1,0.3-1.7,0.3-2.3c0-2-1-3-2.8-3c-4,0-5.7,3.4-7.1,10
			l-2.4,11.4h-4.1L-146.5,224z"/>
		<polygon id="Tagline_International_I" class="st2" points="-167.3,208.1 -162.8,208.1 -170.1,242.6 -174.7,242.6 		"/>
	</g>
</g>
<g>
	<g id="Word_Mark">
		<g id="Word_Trac">
			<path id="Trac_c" class="st2" d="M181.4,51.3c0,5.6-2,8-5.6,8s-5.6-2.4-5.6-8v-18c0-5.6,2-8,5.6-8s5.6,2.4,5.6,8v1.2h10.2
				c-0.2-10.4-4.4-17.6-15.8-17.6c-11.6,0-15.8,7.4-15.8,18.2v14.4c0,10.8,4.2,18.2,15.8,18.2s15.8-7.4,15.8-18.2v-1.2h-10.2V51.3z"
				/>
			<path id="Trac_a" class="st2" d="M155.6,30.1c0-8.8-5.4-13.2-14.8-13.2c-9.6,0-15.8,5.4-16.4,15.2h10.2c0.2-4.2,1.2-7,5.8-7
				c3.4,0,5,2.2,5,6.2v3c-14.6,5.6-21.6,11.6-21.6,22.4c0,6.2,3.4,11,10.4,11c5,0,8-1.6,11.8-4.8c0,1.2,0.4,2.4,0.6,3.8h9.8
				c-0.2-1.6-0.6-3.6-0.6-5.2L155.6,30.1L155.6,30.1z M145.4,54.7c-1.8,2.4-4,4.6-6.8,4.6c-3,0-4.8-1.2-4.8-4.4
				c0-4.2,2.2-7.6,11.6-12.8V54.7z"/>
			<path id="Trac_r" class="st2" d="M117.8,26.5c3,0,4.8,0.6,6.6,1V16.9h-2c-4.8,0-9,2.4-11.6,6.6h-0.2v-5.6h-9.8v48.8H111V33.1
				C111,28.7,114.4,26.5,117.8,26.5z"/>
			<polygon id="Trac_T" class="st2" points="81.4,66.7 92.6,66.7 92.6,10.9 103.6,10.9 103.6,1.1 70.4,1.1 70.4,10.9 81.4,10.9 			
				"/>
		</g>
		<g id="Word_On">
			<path id="On_n" class="st2" d="M61.4,16.9c-6,0-8,2.2-12.4,5.8v-4.8h-9.6v48.8h10.2V28.3c2.4-1.8,4.4-3,6.6-3s3.6,1,3.6,3.6v37.8
				H70V27.1C70,20.9,66.8,16.9,61.4,16.9z"/>
			<path id="On_O" class="st2" d="M17.2,0.3C5.4,0.3,0,7.7,0,17.1v33.8c0,9.2,5.4,16.8,17.2,16.8s17.2-7.6,17.2-16.8V17.1
				C34.6,7.7,29,0.3,17.2,0.3z M23.2,50.5c0,5-1.4,7.2-6,7.2s-6-2.4-6-7.2V17.3c0-5,1.4-7.2,6-7.2s6,2.4,6,7.2V50.5z"/>
		</g>
	</g>
	<path id="Registered_Mark" class="st2" d="M199,12.1c0.6,0.6,1,1.4,1,2.4s-0.4,1.8-1,2.4s-1.6,1-2.4,1c-1,0-1.8-0.4-2.4-1
		c-0.6-0.6-1-1.4-1-2.4c0-0.8,0.4-1.8,1-2.4s1.4-1,2.4-1S198.4,11.3,199,12.1z M198.8,12.3c-0.6-0.6-1.4-1-2.2-1s-1.6,0.4-2.2,0.8
		c-0.6,0.6-1,1.4-1,2.2c0,0.8,0.4,1.6,1,2.2c0.6,0.6,1.4,1,2.2,1s1.6-0.4,2.2-1c0.6-0.6,0.8-1.4,0.8-2.2
		C199.6,13.7,199.4,12.9,198.8,12.3z M198.4,13.5c0,0.6-0.4,1-1,1l0.8,1.8h-0.6l-0.8-1.8h-1v1.8h-0.6v-4h1.4
		C197.8,12.5,198.4,12.7,198.4,13.5z M195.8,12.7v1.4h0.8c0.8,0,1.2-0.2,1.2-0.8c0-0.4-0.4-0.8-1.2-0.8L195.8,12.7L195.8,12.7z"/>
</g>
</svg>
