<?xml version="1.0" encoding="utf-8"?>
<!-- Generator: Adobe Illustrator 22.0.1, SVG Export Plug-In . SVG Version: 6.00 Build 0)  -->
<svg version="1.1" id="Layer_1" xmlns="http://www.w3.org/2000/svg" xmlns:xlink="http://www.w3.org/1999/xlink" x="0px" y="0px"
	 viewBox="0 0 200 130" style="enable-background:new 0 0 200 130;" xml:space="preserve">
<style type="text/css">
	.st0{fill:#FFFFFF;}
	.st1{fill:#FFCD00;}
	.st2{fill:#00205C;}
</style>
<title>ontrac-logo-no-tagline</title>
<path class="st0" d="M181.5,113.6c0,5.6-2,7.9-5.6,7.9s-5.6-2.4-5.6-7.9v-18c0-5.6,2-7.9,5.6-7.9s5.6,2.3,5.6,7.9v1.3h10.1
	c-0.2-10.4-4.3-17.5-15.7-17.5s-15.7,7.4-15.7,17.9v14.2c0,10.6,4.2,18,15.7,18s15.7-7.4,15.7-18v-1.3h-10.1V113.6z"/>
<path class="st0" d="M156,92.5c0-8.8-5.3-13.2-14.7-13.2s-15.7,5.4-16.2,15.1h10.1c0.2-4.2,1.2-6.8,5.8-6.8c3.2,0,5,2.2,5,6.2v2.9
	c-14.5,5.5-21.5,11.4-21.5,22c-0.6,5.3,3.1,10.2,8.4,10.9c0.6,0.1,1.2,0.1,1.8,0.1c4.4,0,8.6-1.7,11.8-4.7c0,1.2,0.5,2.4,0.6,3.8
	h9.7c-0.3-1.7-0.6-3.4-0.6-5.1L156,92.5z M145.8,116.8c-1.4,2.5-3.9,4.2-6.8,4.6c-3.2,0-4.7-1.3-4.7-4.4c0-4.2,2.2-7.6,11.4-13
	L145.8,116.8L145.8,116.8z"/>
<path class="st0" d="M118.4,89c2.2,0,4.4,0.3,6.5,1V79.4h-2.1c-4.7-0.1-9,2.4-11.4,6.5l0,0v-5.6h-9.7v48.6h10.1V95.5
	C111.8,91.9,114.7,89,118.4,89C118.2,89,118.3,89,118.4,89z"/>
<polygon class="st0" points="82.2,128.8 93.4,128.8 93.4,73.4 104.2,73.4 104.2,63.7 71.4,63.7 71.4,73.4 82.2,73.4 "/>
<path class="st1" d="M62.4,79.4c-5.8,0-8,2.2-12.2,5.8v-4.9h-9.5v48.6h10.1v-38c1.8-1.7,4.1-2.7,6.5-3c1.8-0.2,3.4,1,3.6,2.8
	c0,0.2,0,0.5,0,0.7v37.4H71V89.6C70.9,83.2,67.7,79.4,62.4,79.4z"/>
<path class="st1" d="M18.6,62.8C7,62.8,1.5,70.3,1.5,79.5V113c0,9.2,5.4,16.7,17.1,16.7s17.1-7.4,17.1-16.7V79.5
	C35.7,70.3,30.3,62.8,18.6,62.8z M24.6,112.8c0,4.9-1.4,7.2-5.9,7.2s-5.9-2.3-5.9-7.2v-33c0-4.9,1.4-7.2,5.9-7.2s5.9,2.4,5.9,7.2
	V112.8z"/>
<path class="st1" d="M0,56.5c8.2-6.1,35.6-27,75.8-10.2V25.9C32.3,18.4,9.4,39.1,0,56.5z"/>
<path class="st1" d="M28.5,21.2c-4,2.7-7.7,6-10.8,9.7c28.3-17.7,60.6-9.1,60.9-9l60.8-18.8C139.4,3.1,74.6-10.2,28.5,21.2z"/>
<polygon class="st0" points="146.4,8.6 83,28.1 83,46.8 134.6,68.9 197.6,45.6 197.6,25.7 "/>
<path class="st1" d="M200,24.8c0-1-0.7-2-1.7-2.3L146.6,5.6c-0.5-0.2-1-0.2-1.5,0L81.7,25.2c-1,0.3-1.7,1.3-1.8,2.3v19.8
	c0,1,0.6,1.9,1.5,2.3l52.4,22l0,0c0.7,0.3,1.4,0.3,2.2,0L198.4,48c1-0.4,1.6-1.3,1.6-2.4V24.8L200,24.8z M84.9,31.3l47.4,19v15.3
	l-47.4-20V31.3z M134.9,45.9L89.9,28l55.9-17.3L190,25.1L134.9,45.9z M195,44l-57.7,21.8V50.3L195,28.5V44z"/>
<path class="st2" d="M102.3,29.2l11.6-3.9c0.4-0.1,0.6-0.6,0.6-1c0-0.1,0-0.1-0.1-0.2c-0.2-0.4-0.8-0.6-1.3-0.5l-11.5,4
	c-0.4,0.1-0.6,0.5-0.6,0.9c0,0.1,0,0.1,0.1,0.2C101.4,29.2,101.8,29.4,102.3,29.2z"/>
<path class="st2" d="M105.1,30.3c0.2,0.4,0.8,0.6,1.3,0.5l11.6-3.9c0.4-0.1,0.6-0.5,0.6-0.9c0-0.1,0-0.1-0.1-0.2
	c-0.2-0.4-0.7-0.6-1.2-0.5l-11.7,4.1C105.2,29.5,105,30,105.1,30.3z"/>
<path class="st2" d="M129.4,29.1l15.9-5.8c0.6-0.2,0.9-0.7,0.7-1.4c0-0.1,0-0.1-0.1-0.2c-0.3-0.6-1-0.8-1.7-0.6l-15.9,5.7
	c-0.6,0.2-0.9,0.6-0.8,1.2c0,0.1,0.1,0.2,0.1,0.2C128,29.1,128.7,29.3,129.4,29.1z"/>
<path class="st2" d="M132.6,30.6c0.3,0.6,1,0.8,1.7,0.6l15.7-5.8c0.6-0.2,0.9-0.7,0.7-1.4c0-0.1,0-0.1-0.1-0.2
	c-0.3-0.6-1-0.8-1.7-0.6L133.2,29c-0.6,0.2-0.9,0.7-0.7,1.3C132.6,30.4,132.6,30.5,132.6,30.6z"/>
<path class="st2" d="M138.1,32.7c0.3,0.6,1,0.9,1.7,0.6l15.5-5.8c0.6-0.2,0.8-0.7,0.6-1.3v-0.1c-0.3-0.6-1-0.9-1.7-0.6L138.7,31
	c-0.6,0.1-1,0.7-0.8,1.3C138,32.4,138,32.5,138.1,32.7z"/>
<path class="st0" d="M199,74.7c0.6,0.6,1,1.5,1,2.4s-0.3,1.8-1,2.4c-0.6,0.6-1.5,1-2.4,1s-1.8-0.3-2.4-1c-1.3-1.2-1.4-3.3-0.2-4.6
	c0.1-0.1,0.2-0.2,0.2-0.2c0.6-0.6,1.4-1,2.4-1C197.5,73.7,198.4,74,199,74.7z M198.8,74.9c-0.6-0.6-1.4-0.9-2.2-0.9
	s-1.6,0.3-2.2,0.9s-0.9,1.4-0.9,2.2c0,0.8,0.3,1.6,0.9,2.2s1.4,0.9,2.2,0.9s1.6-0.3,2.2-0.9s0.9-1.4,0.9-2.2
	c0.1-0.9-0.2-1.8-0.9-2.4V74.9z M198.3,76.1c0,0.6-0.4,1-1,1l0.9,1.8h-0.6l-0.9-1.8h-1V79h-0.6v-4.1h1.4c1,0,1.6,0.3,1.6,1
	L198.3,76.1L198.3,76.1z M195.8,75.5v1.4h0.8c0.8,0,1.2-0.2,1.2-0.7s-0.4-0.7-1.2-0.7C196.6,75.5,195.8,75.5,195.8,75.5z"/>
</svg>
