<?xml version="1.0" encoding="utf-8"?>
<!-- Generator: Adobe Illustrator 25.2.0, SVG Export Plug-In . SVG Version: 6.00 Build 0)  -->
<svg version="1.1" id="Layer_1" xmlns="http://www.w3.org/2000/svg" xmlns:xlink="http://www.w3.org/1999/xlink" x="0px" y="0px"
	 viewBox="0 0 387.7 320.4" style="enable-background:new 0 0 387.7 320.4;" xml:space="preserve">
<style type="text/css">
	.st0{fill:#00205C;}
	.st1{fill:#FFFFFF;}
	.st2{fill:#FFCD00;}
</style>
<g>
	<path class="st0" d="M113.1,265.7l0.5-2.5h6.7l-0.5,2.5H113.1z"/>
	<g>
		<g>
			<path class="st0" d="M77.4,258.9c0.7-3.2,1.4-5.1,1.9-5.9c1.5-2.6,3.6-3.8,6.9-3.8c4,0,6.1,2,6.1,5.8c0,1.5-0.4,4-1.2,7.4
				c-0.6,2.7-1.3,4.6-1.9,5.7c-1.5,2.6-3.7,3.8-6.9,3.8c-4,0-6.1-2.1-6.1-5.9C76.3,264.8,76.7,262.4,77.4,258.9z M81.9,254
				c-0.3,0.6-0.9,2.1-1.4,4.4c-0.9,3.8-1.3,6.3-1.3,7.5c0,2.4,1.1,3.5,3.4,3.5c1.9,0,3.2-0.7,4.1-2.3c0.5-0.9,0.9-2.4,1.4-4.4
				c0.8-3.7,1.3-6.1,1.3-7.4c0-2.4-1.1-3.6-3.4-3.6C84.1,251.7,82.9,252.4,81.9,254z"/>
			<path class="st0" d="M97.3,259.8c0.2-1.1,0.4-2.3,0.6-3.5h2.5l-0.4,2.3c1.2-1.7,2.8-2.6,4.7-2.6c2,0,3.2,1.3,3.2,3.5
				c0,0.5-0.1,1.2-0.3,2.1l-2.1,10h-2.6l2.2-10.3c0.1-0.6,0.2-1.1,0.2-1.5c0-1.3-0.6-1.9-1.8-1.9c-2.5,0-3.6,2.2-4.5,6.4l-1.6,7.3
				h-2.6L97.3,259.8z"/>
			<path class="st0" d="M129,252.1h-5.4l0.6-2.5h13.5l-0.6,2.5h-5.3l-4.1,19.5h-2.9L129,252.1z"/>
			<path class="st0" d="M140.8,256.2h2.6l-3.3,15.4h-2.6L140.8,256.2z M142.1,249.6h2.8l-0.6,2.7h-2.8L142.1,249.6z"/>
			<path class="st0" d="M148.5,259.8c0.2-1.1,0.4-2.3,0.6-3.5h2.5l-0.4,2.3c1.1-1.7,2.6-2.6,4.3-2.6c1.8,0,2.9,1,3.1,2.9
				c1.2-2,2.6-2.9,4.6-2.9c1.8,0,3,1.3,3,3.5c0,0.6-0.1,1.3-0.3,2.1l-2.1,10H161l2.2-10.3c0.2-0.8,0.2-1.3,0.2-1.5
				c0-1.3-0.5-1.9-1.6-1.9c-2.3,0-3.2,2.2-4.1,6.4l-1.6,7.3h-2.6l2.2-10.3c0.1-0.6,0.2-1.1,0.2-1.5c0-1.3-0.6-1.9-1.6-1.9
				c-2.4,0-3.2,2.3-4.1,6.4l-1.6,7.3H146L148.5,259.8z"/>
			<path class="st0" d="M175.3,272c-3.2,0-5.1-1.8-5.1-4.8c0-0.9,0.2-2.3,0.6-4c0.4-2,0.9-3.5,1.4-4.3c1.2-2.1,2.8-3,5.3-3
				c3.3,0,5.1,1.7,5.1,5c0,0.8-0.2,2-0.5,3.6h-8.9c-0.2,1-0.3,1.9-0.3,2.8c0,1.7,0.9,2.6,2.9,2.6c1.5,0,2.5-1,3-3.2h2.8
				C180.7,270.3,178.8,272,175.3,272z M179.8,262.5c0.1-0.6,0.2-1.2,0.2-1.6c0-1.9-0.8-2.9-2.5-2.9c-2.1,0-3.1,1.4-3.8,4.5H179.8z"
				/>
			<path class="st0" d="M198.8,258h-2.4l0.4-1.8h2.4l0.5-2.1c0.7-3.6,1.7-4.9,4.7-4.9c0.6,0,1,0.1,1.4,0.2l-0.4,2
				c-0.4-0.1-0.7-0.1-0.9-0.1c-1.3,0-1.8,0.8-2.2,2.7l-0.5,2.2h2.5L204,258h-2.5l-2.9,13.6h-2.6L198.8,258z"/>
			<path class="st0" d="M206.9,263.1c0.5-2.1,0.9-3.5,1.3-4.2c1.2-2.1,2.8-3,5.3-3c3.3,0,5.2,1.8,5.2,4.8c0,1-0.2,2.3-0.5,3.9
				c-0.5,2.1-1,3.6-1.5,4.5c-1.1,2-2.8,2.9-5.3,2.9c-3.2,0-5.1-1.9-5.1-4.8C206.3,266.3,206.5,264.9,206.9,263.1z M210.6,259.8
				c-0.2,0.4-0.7,1.7-1.1,3.7c-0.3,1.4-0.5,2.6-0.5,3.7c0,1.7,0.9,2.6,2.6,2.6c1.3,0,2.2-0.6,2.8-1.8c0.3-0.6,0.7-1.9,1.1-3.9
				c0.3-1.5,0.5-2.6,0.5-3.3c0-1.9-0.9-2.8-2.6-2.8C212.1,258,211.3,258.6,210.6,259.8z"/>
			<path class="st0" d="M224.6,259.6c0.2-1.1,0.4-2.3,0.5-3.4h2.5l-0.5,2.6c1-1.8,2.3-2.7,4.2-2.7c0.2,0,0.5,0,0.8,0.1l-0.5,2.4
				c-0.2,0-0.3,0-0.5,0c-2.9,0-4,1.6-4.8,5.3l-1.7,7.8H222L224.6,259.6z"/>
			<path class="st0" d="M248.1,249.6h2.9l-4.1,19.6h7.5l-0.5,2.5h-10.4L248.1,249.6z"/>
			<path class="st0" d="M263.7,272c-3.2,0-5.1-1.8-5.1-4.8c0-0.9,0.2-2.3,0.6-4c0.4-2,0.9-3.5,1.4-4.3c1.2-2.1,2.8-3,5.3-3
				c3.3,0,5.1,1.7,5.1,5c0,0.8-0.2,2-0.5,3.6h-8.9c-0.2,1-0.3,1.9-0.3,2.8c0,1.7,0.9,2.6,2.9,2.6c1.5,0,2.5-1,3-3.2h2.8
				C269.1,270.3,267.1,272,263.7,272z M268.1,262.5c0.1-0.6,0.2-1.2,0.2-1.6c0-1.9-0.8-2.9-2.5-2.9c-2.1,0-3.1,1.4-3.8,4.5H268.1z"
				/>
			<path class="st0" d="M277,266.9c0,0.3-0.1,0.6-0.1,0.8c0,1.4,0.8,2.2,2.2,2.2c1.7,0,2.8-1.2,2.8-2.6c0-1.2-0.7-1.9-2.1-2.8
				c-2.2-1.4-3.7-2.2-3.7-4.4c0-2.6,1.9-4.3,5.2-4.3c3.2,0,4.7,1.3,4.7,3.9c0,0.2,0,0.4,0,0.6h-2.6c0-0.2,0-0.3,0-0.4
				c0-1.5-0.6-2.1-2.3-2.1c-1.5,0-2.5,0.8-2.5,2c0,1.4,1.3,1.9,3.1,3.1c1.9,1.3,2.8,2.4,2.8,4.2c0,3-2.1,4.9-5.7,4.9
				c-3,0-4.7-1.3-4.7-3.7c0-0.4,0.1-0.9,0.2-1.3H277z"/>
			<path class="st0" d="M291.9,266.9c0,0.3-0.1,0.6-0.1,0.8c0,1.4,0.8,2.2,2.2,2.2c1.7,0,2.8-1.2,2.8-2.6c0-1.2-0.7-1.9-2.1-2.8
				c-2.2-1.4-3.7-2.2-3.7-4.4c0-2.6,1.9-4.3,5.2-4.3c3.2,0,4.7,1.3,4.7,3.9c0,0.2,0,0.4,0,0.6h-2.6c0-0.2,0-0.3,0-0.4
				c0-1.5-0.6-2.1-2.3-2.1c-1.5,0-2.5,0.8-2.5,2c0,1.4,1.3,1.9,3.1,3.1c1.9,1.3,2.8,2.4,2.8,4.2c0,3-2.1,4.9-5.7,4.9
				c-3,0-4.7-1.3-4.7-3.7c0-0.4,0.1-0.9,0.2-1.3H291.9z"/>
		</g>
		<g>
			<polygon id="Package_Fill_5_" class="st1" points="260.7,60.4 169.5,88.5 169.5,115.3 243.6,147.3 334.4,113.6 334.4,85.1 			"/>
			<g>
				<path id="Trac_c_2_" class="st0" d="M310.9,211.4c0,8.1-2.8,11.4-8,11.4c-5.2,0-8.1-3.4-8.1-11.4v-25.7c0-8,2.9-11.4,8.1-11.4
					c5.2,0,8,3.4,8,11.4v1.8h14.5c-0.3-14.9-6.2-25.2-22.6-25.2c-16.6,0-22.6,10.6-22.6,26v20.5c0,15.3,6,25.9,22.6,25.9
					c16.6,0,22.6-10.6,22.6-25.9V207h-14.5V211.4z"/>
				<path id="Trac_a_5_" class="st0" d="M274.2,181.3c0-12.7-7.7-18.9-21.2-18.9c-13.6,0-22.6,7.7-23.4,21.8h14.6
					c0.2-6,1.7-9.9,8.3-9.9c4.8,0,7.1,3.1,7.1,9v4.2c-20.9,7.9-31,16.4-31,31.7c0,9,4.9,15.7,14.8,15.7c7,0,11.6-2.3,17-6.7
					c0.1,1.7,0.7,3.5,0.8,5.5h13.9c-0.4-2.3-0.9-5.2-0.9-7.4V181.3z M259.7,216.3c-2.5,3.5-5.7,6.5-9.7,6.5c-4.4,0-6.8-1.8-6.8-6.3
					c0-6.1,3.3-10.9,16.5-18.4V216.3z"/>
				<path id="Trac_r_5_" class="st0" d="M220.1,176.1c4.3,0,6.8,0.8,9.3,1.4v-15.2h-3c-6.9,0-13,3.5-16.5,9.5h-0.3v-8.2h-13.9v69.8
					h14.5v-48C210.3,179.2,215.1,176.1,220.1,176.1z"/>
				<polygon id="Trac_T_5_" class="st0" points="168,233.5 184.1,233.5 184.1,153.8 199.7,153.8 199.7,139.7 152.4,139.7 
					152.4,153.8 168,153.8 				"/>
				<path id="On_n_5_" class="st2" d="M139.7,162.3c-8.4,0-11.6,3.1-17.7,8.3v-7h-13.8v69.8h14.5v-54.8c3.4-2.5,6.2-4.4,9.3-4.4
					c3.1,0,5.2,1.6,5.2,5.1v54.1h14.5V177C151.9,167.9,147.4,162.3,139.7,162.3z"/>
				<path id="On_O_5_" class="st2" d="M76.6,138.5c-16.9,0-24.7,10.8-24.7,24v48.3c0,13.2,7.8,24,24.7,24c16.9,0,24.7-10.8,24.7-24
					v-48.3C101.3,149.2,93.5,138.5,76.6,138.5z M85.2,210.4c0,7-2.1,10.4-8.6,10.4c-6.5,0-8.6-3.4-8.6-10.4v-47.5
					c0-7,2.1-10.4,8.6-10.4c6.5,0,8.6,3.4,8.6,10.4V210.4z"/>
			</g>
			<g>
				<path id="Bottom_Swoosh_2_" class="st2" d="M49.9,129.4c11.9-8.7,51.1-38.9,109.2-14.6c0,0,0-25.5,0-29.5
					C96.4,74.6,63.4,104.4,49.9,129.4z"/>
				<path id="Top_Swoosh_5_" class="st2" d="M90.9,78.6c-5.8,3.9-12.2,9.7-15.5,14.1c40.8-25.5,87.3-13.2,87.6-13.1
					c0.5-0.1,87.6-27.1,87.6-27.1S157.2,33.3,90.9,78.6z"/>
				<path id="Package_Outline_5_" class="st2" d="M337.8,83.8c0,0,0.1-2.2-2.4-3.3c-0.1-0.1-74.4-24.3-74.4-24.3
					c-0.7-0.2-1.5-0.2-2.2,0l-91.4,28.3c-2.3,0.9-2.5,2.9-2.5,3.3v28.6c0,1.4,0.9,2.8,2.2,3.3l75.4,31.7l0,0
					c1.3,0.6,2.8,0.2,3.1,0.1l89.9-34.1c1.4-0.5,2.3-1.9,2.3-3.4L337.8,83.8z M172.1,93.1l68.3,27.3v22.1l-68.3-28.6V93.1z
					 M244,114.1l-64.7-25.8l80.5-24.9l63.6,20.8L244,114.1z M330.6,111.4l-83,31.5v-22.5l83-31.4V111.4z"/>
				<path id="From_Address_Top_5_" class="st0" d="M197.2,90.1l16.7-5.6c0.7-0.2,1-0.9,0.7-1.5c-0.3-0.6-1.1-0.9-1.8-0.7l-16.7,5.6
					c-0.7,0.2-1,0.9-0.7,1.5C195.7,90,196.5,90.3,197.2,90.1z"/>
				<path id="From_Address_Bottom_5_" class="st0" d="M201.2,91.7c0.3,0.6,1.1,0.9,1.8,0.7l16.7-5.6c0.7-0.2,1-0.9,0.7-1.5
					c-0.3-0.6-1.1-0.9-1.8-0.7l-16.7,5.6C201.2,90.4,200.9,91.1,201.2,91.7z"/>
				<path id="To_Address_Top_5_" class="st0" d="M236.2,89.9l22.8-8.2c0.9-0.3,1.4-1.3,1-2.1c-0.4-0.8-1.5-1.2-2.4-0.9l-22.8,8.2
					c-1,0.3-1.4,1.3-1,2.1C234.1,89.9,235.2,90.3,236.2,89.9z"/>
				<path id="To_Address_Middle_5_" class="st0" d="M240.8,92.1c0.4,0.8,1.5,1.2,2.5,0.8l22.6-8.2c0.9-0.3,1.4-1.3,1-2.1
					c-0.4-0.8-1.5-1.2-2.4-0.8L241.7,90C240.8,90.3,240.3,91.2,240.8,92.1z"/>
				<path id="To_Address_Bottom_5_" class="st0" d="M248.7,94.9c0.4,0.8,1.5,1.2,2.5,0.8l22.4-8.2c0.9-0.3,1.3-1.3,0.9-2.1
					c-0.4-0.8-1.5-1.2-2.4-0.9l-22.4,8.2C248.7,93.2,248.3,94.1,248.7,94.9z"/>
			</g>
			<path id="Registered_Mark_1_" class="st0" d="M336.4,155.2c0.9,0.9,1.4,2.2,1.4,3.5c0,1.4-0.5,2.5-1.4,3.5c-1,1-2.2,1.5-3.5,1.5
				c-1.3,0-2.5-0.5-3.5-1.5c-0.9-0.9-1.5-2.2-1.5-3.5c0-1.3,0.5-2.5,1.5-3.5c0.9-0.9,2.1-1.4,3.5-1.4S335.5,154.3,336.4,155.2z
				 M336.1,155.6c-0.9-0.9-2-1.3-3.2-1.3s-2.3,0.5-3.1,1.3c-0.9,0.9-1.3,2-1.3,3.2s0.5,2.3,1.3,3.1c0.8,0.8,2,1.3,3.1,1.3
				c1.2,0,2.3-0.5,3.2-1.3c0.8-0.8,1.3-1.9,1.3-3.1C337.4,157.5,336.9,156.4,336.1,155.6z M335.4,157.3c0,0.8-0.5,1.4-1.4,1.5
				l1.3,2.7h-0.9l-1.2-2.5h-1.4v2.5H331v-5.7h2.1C334.6,155.8,335.4,156.2,335.4,157.3z M331.8,156.3v2.1h1.1c1.2,0,1.7-0.2,1.7-1.1
				c0-0.7-0.6-1-1.7-1H331.8z"/>
		</g>
	</g>
</g>
</svg>
