<svg xmlns="http://www.w3.org/2000/svg" viewBox="0 0 61.82 40"><path d="M56.1 35c0 1.72-.61 2.45-1.73 2.45s-1.73-.73-1.73-2.45v-5.53c0-1.73.62-2.45 1.73-2.45s1.73.72 1.73 2.45v.39h3.12c-.06-3.21-1.34-5.41-4.85-5.41s-4.85 2.29-4.85 5.55v4.4c0 3.29 1.28 5.57 4.85 5.57s4.85-2.28 4.85-5.57V34H56.1zm-7.89-6.48c0-2.73-1.64-4.07-4.54-4.07s-4.85 1.65-5 4.68h3.12c.05-1.28.36-2.11 1.78-2.11 1 0 1.53.66 1.53 1.92v.89c-4.48 1.7-6.66 3.51-6.66 6.8A3 3 0 0 0 41.61 40a5.31 5.31 0 0 0 3.65-1.45c0 .36.14.75.17 1.17h3a11.15 11.15 0 0 1-.2-1.59zM45.09 36A2.74 2.74 0 0 1 43 37.4c-1 0-1.45-.39-1.45-1.37 0-1.31.7-2.34 3.54-4zm-8.49-8.59a7.09 7.09 0 0 1 2 .3v-3.26h-.64a4.05 4.05 0 0 0-3.54 2v-1.72h-3v15h3.12V29.41a2 2 0 0 1 2.06-2z" fill="#fff"/><path fill="#fff" d="M25.42 39.72h3.46V22.61h3.34V19.6H22.08v3.01h3.34v17.11z"/><path d="M19.29 24.45c-1.81 0-2.48.67-3.79 1.78v-1.5h-2.95v15h3.12V28a3.61 3.61 0 0 1 2-.94 1 1 0 0 1 1.12 1.08v11.58h3.12V27.6c0-1.95-1-3.15-2.62-3.15zM5.75 19.33c-3.62 0-5.3 2.31-5.3 5.15v10.36c0 2.85 1.68 5.16 5.3 5.16s5.29-2.31 5.29-5.16V24.48c0-2.84-1.67-5.15-5.29-5.15zm1.84 15.43c0 1.51-.45 2.23-1.84 2.23s-1.84-.72-1.84-2.23v-10.2c0-1.5.44-2.23 1.84-2.23s1.84.73 1.84 2.23zM0 17.39c2.54-1.87 11-8.35 23.44-3.13V7.92C10 5.62 2.91 12 0 17.39z" fill="#ffcd00"/><path d="M8.81 6.47a16.25 16.25 0 0 0-3.34 3C14.23 4 24.2 6.66 24.28 6.68L43.08.86S23.05-3.25 8.81 6.47z" fill="#ffcd00"/><path fill="#fff" d="M45.25 2.56L25.68 8.6v5.76l15.91 6.86 19.48-7.23V7.87L45.25 2.56z"/><path d="M61.82 7.59a.8.8 0 0 0-.52-.72l-16-5.22a.84.84 0 0 0-.47 0L25.24 7.71a.81.81 0 0 0-.54.71v6.13a.78.78 0 0 0 .47.71l16.2 6.81a.87.87 0 0 0 .66 0l19.29-7.31a.79.79 0 0 0 .5-.73zm-35.58 2l14.67 5.85v4.73L26.24 14zm15.44 4.5L27.79 8.54l17.28-5.35 13.65 4.46zm18.59-.57l-17.82 6.76v-4.83l17.82-6.73z" fill="#ffcd00"/><path d="M31.63 8.94l3.58-1.2a.24.24 0 0 0 .16-.33.34.34 0 0 0-.39-.14l-3.58 1.2a.23.23 0 0 0-.15.33.31.31 0 0 0 .38.14zm.86.34a.33.33 0 0 0 .39.14l3.58-1.2a.23.23 0 0 0 .15-.32.32.32 0 0 0-.38-.15L32.65 9a.23.23 0 0 0-.16.28zM40 8.91l4.91-1.77a.33.33 0 0 0 .21-.45.42.42 0 0 0-.52-.18l-4.92 1.76a.32.32 0 0 0-.22.45.45.45 0 0 0 .54.19zm.98.46a.43.43 0 0 0 .53.18l4.84-1.77a.33.33 0 0 0 .21-.45.43.43 0 0 0-.52-.18l-4.85 1.77a.32.32 0 0 0-.21.45zm1.7.63a.42.42 0 0 0 .53.18l4.8-1.77a.31.31 0 0 0 .2-.41.4.4 0 0 0-.51-.18l-4.79 1.71a.33.33 0 0 0-.23.47z" fill="#00205c"/><path d="M61.52 23a1 1 0 0 1 .3.74 1 1 0 0 1-.3.73 1.05 1.05 0 0 1-.74.31 1 1 0 0 1-.74-.31 1 1 0 0 1 0-1.47 1 1 0 0 1 .73-.3 1 1 0 0 1 .75.3zm-.07.08a.91.91 0 0 0-.67-.28.88.88 0 0 0-.66.27 1 1 0 0 0-.28.67.92.92 0 0 0 .28.66.91.91 0 0 0 .66.28 1 1 0 0 0 .67-.28.94.94 0 0 0 .27-.66.92.92 0 0 0-.27-.74zm-.14.37a.31.31 0 0 1-.29.32l.27.56h-.19l-.26-.54h-.3v.54h-.17v-1.26h.44c.33 0 .5.1.5.33zm-.77-.22v.45h.24c.25 0 .36-.05.36-.23s-.12-.22-.36-.22z" fill="#fff"/></svg>