<svg xmlns="http://www.w3.org/2000/svg" viewBox="0 0 61.82 40"><title>ontrac-logo-no-tagline</title><path d="M56.19,35c0,1.72-.61,2.45-1.73,2.45s-1.73-.73-1.73-2.45V29.47c0-1.73.62-2.45,1.73-2.45s1.73.72,1.73,2.45v.39h3.12c-.06-3.21-1.34-5.41-4.85-5.41S49.61,26.74,49.61,30v4.4c0,3.29,1.28,5.57,4.85,5.57s4.85-2.28,4.85-5.57V34H56.19Z" transform="translate(-0.09)" style="fill:#fff"/><path d="M48.3,28.52c0-2.73-1.64-4.07-4.54-4.07s-4.85,1.65-5,4.68h3.12c.05-1.28.36-2.11,1.78-2.11,1,0,1.53.66,1.53,1.92v.89c-4.48,1.7-6.66,3.51-6.66,6.8A3,3,0,0,0,41.7,40a5.31,5.31,0,0,0,3.65-1.45c0,.36.14.75.17,1.17h3a11.15,11.15,0,0,1-.2-1.59ZM45.18,36a2.74,2.74,0,0,1-2.09,1.4c-1,0-1.45-.39-1.45-1.37,0-1.31.7-2.34,3.54-4Z" transform="translate(-0.09)" style="fill:#fff"/><path d="M36.69,27.41a7.09,7.09,0,0,1,2,.3V24.45h-.64a4.05,4.05,0,0,0-3.54,2h0V24.73h-3v15h3.12V29.41A2,2,0,0,1,36.69,27.41Z" transform="translate(-0.09)" style="fill:#fff"/><polygon points="25.42 39.72 28.88 39.72 28.88 22.61 32.22 22.61 32.22 19.6 22.08 19.6 22.08 22.61 25.42 22.61 25.42 39.72" style="fill:#fff"/><path d="M19.38,24.45c-1.81,0-2.48.67-3.79,1.78v-1.5H12.64v15h3.12V28a3.61,3.61,0,0,1,2-.94,1,1,0,0,1,1.12,1.08V39.72H22V27.6C22,25.65,21,24.45,19.38,24.45Z" transform="translate(-0.09)" style="fill:#ffcd00"/><path d="M5.84,19.33c-3.62,0-5.3,2.31-5.3,5.15V34.84C.54,37.69,2.22,40,5.84,40s5.29-2.31,5.29-5.16V24.48C11.13,21.64,9.46,19.33,5.84,19.33ZM7.68,34.76c0,1.51-.45,2.23-1.84,2.23S4,36.27,4,34.76V24.56c0-1.5.44-2.23,1.84-2.23s1.84.73,1.84,2.23Z" transform="translate(-0.09)" style="fill:#ffcd00"/><path d="M.09,17.39c2.54-1.87,11-8.35,23.44-3.13V7.92C10.09,5.62,3,12,.09,17.39Z" transform="translate(-0.09)" style="fill:#ffcd00"/><path d="M8.9,6.47a16.25,16.25,0,0,0-3.34,3C14.32,4,24.29,6.66,24.37,6.68L43.17.86S23.14-3.25,8.9,6.47Z" transform="translate(-0.09)" style="fill:#ffcd00"/><polygon points="45.25 2.56 25.68 8.6 25.68 14.36 41.59 21.22 61.07 13.99 61.07 7.87 45.25 2.56" style="fill:#fff"/><path d="M61.91,7.59a.8.8,0,0,0-.52-.72l-16-5.22a.84.84,0,0,0-.47,0L25.33,7.71a.81.81,0,0,0-.54.71v6.13a.78.78,0,0,0,.47.71l16.2,6.81h0a.87.87,0,0,0,.66,0l19.29-7.31a.79.79,0,0,0,.5-.73Zm-35.58,2L41,15.44v4.73L26.33,14Zm15.44,4.5L27.88,8.54,45.16,3.19,58.81,7.65Zm18.59-.57L42.54,20.28V15.45L60.36,8.72Z" transform="translate(-0.09)" style="fill:#ffcd00"/><path d="M31.72,8.94l3.58-1.2a.24.24,0,0,0,.16-.33.34.34,0,0,0-.39-.14l-3.58,1.2a.23.23,0,0,0-.15.33A.31.31,0,0,0,31.72,8.94Z" transform="translate(-0.09)" style="fill:#00205c"/><path d="M32.58,9.28a.33.33,0,0,0,.39.14l3.58-1.2a.23.23,0,0,0,.15-.32.32.32,0,0,0-.38-.15L32.74,9A.23.23,0,0,0,32.58,9.28Z" transform="translate(-0.09)" style="fill:#00205c"/><path d="M40.09,8.91,45,7.14a.33.33,0,0,0,.21-.45.42.42,0,0,0-.52-.18L39.77,8.27a.32.32,0,0,0-.22.45A.45.45,0,0,0,40.09,8.91Z" transform="translate(-0.09)" style="fill:#00205c"/><path d="M41.07,9.37a.43.43,0,0,0,.53.18l4.84-1.77a.33.33,0,0,0,.21-.45.43.43,0,0,0-.52-.18L41.28,8.92A.32.32,0,0,0,41.07,9.37Z" transform="translate(-0.09)" style="fill:#00205c"/><path d="M42.77,10a.42.42,0,0,0,.53.18l4.8-1.77A.31.31,0,0,0,48.3,8a.4.4,0,0,0-.51-.18L43,9.53A.33.33,0,0,0,42.77,10Z" transform="translate(-0.09)" style="fill:#00205c"/><path d="M61.61,23a1,1,0,0,1,.3.74,1,1,0,0,1-.3.73,1.05,1.05,0,0,1-.74.31,1,1,0,0,1-.74-.31,1,1,0,0,1,0-1.47,1,1,0,0,1,.73-.3A1,1,0,0,1,61.61,23Zm-.07.08a.91.91,0,0,0-.67-.28.88.88,0,0,0-.66.27,1,1,0,0,0-.28.67.92.92,0,0,0,.28.66.91.91,0,0,0,.66.28,1,1,0,0,0,.67-.28.94.94,0,0,0,.27-.66A.92.92,0,0,0,61.54,23Zm-.14.37a.31.31,0,0,1-.29.32l.27.56h-.19l-.26-.54h-.3v.54h-.17V23.07h.44C61.23,23.07,61.4,23.17,61.4,23.4Zm-.77-.22v.45h.24c.25,0,.36-.05.36-.23s-.12-.22-.36-.22Z" transform="translate(-0.09)" style="fill:#fff"/></svg>