<?xml version="1.0" encoding="utf-8"?>
<!-- Generator: Adobe Illustrator 22.1.0, SVG Export Plug-In . SVG Version: 6.00 Build 0)  -->
<svg version="1.1" id="Layer_1" xmlns="http://www.w3.org/2000/svg" xmlns:xlink="http://www.w3.org/1999/xlink" x="0px" y="0px"
	 viewBox="0 0 387.7 320.4" style="enable-background:new 0 0 387.7 320.4;" xml:space="preserve">
<style type="text/css">
	.st0{fill:#00205C;}
	.st1{fill:#FFCD00;}
	.st2{fill:#FFFFFF;}
</style>
<g>
	<g>
		<g>
			<path id="Trac_c_12_" class="st0" d="M310.7,211.8c0,8.1-2.8,11.4-8,11.4c-5.2,0-8.1-3.4-8.1-11.4v-25.7c0-8,2.9-11.4,8.1-11.4
				c5.2,0,8,3.4,8,11.4v1.8h14.5c-0.3-14.9-6.2-25.2-22.6-25.2c-16.6,0-22.6,10.6-22.6,26v20.5c0,15.3,6,25.9,22.6,25.9
				c16.6,0,22.6-10.6,22.6-25.9v-1.8h-14.5V211.8z"/>
			<path id="Trac_a_12_" class="st0" d="M273.9,181.7c0-12.7-7.7-18.9-21.2-18.9c-13.6,0-22.6,7.7-23.4,21.8H244
				c0.2-6,1.7-9.9,8.3-9.9c4.8,0,7.1,3.1,7.1,9v4.2c-20.9,7.9-31,16.4-31,31.7c0,9,4.9,15.7,14.8,15.7c7,0,11.6-2.3,17-6.7
				c0.1,1.7,0.7,3.5,0.8,5.5h13.9c-0.4-2.3-0.9-5.2-0.9-7.4V181.7z M259.4,216.8c-2.5,3.5-5.7,6.5-9.7,6.5c-4.4,0-6.8-1.8-6.8-6.3
				c0-6.1,3.3-10.9,16.5-18.4V216.8z"/>
			<path id="Trac_r_12_" class="st0" d="M219.8,176.5c4.3,0,6.8,0.8,9.3,1.4v-15.2h-3c-6.9,0-13,3.5-16.5,9.5h-0.3v-8.2h-13.9v69.8
				h14.5v-48C210.1,179.7,214.9,176.5,219.8,176.5z"/>
			<polygon id="Trac_T_12_" class="st0" points="167.7,233.9 183.8,233.9 183.8,154.2 199.4,154.2 199.4,140.2 152.2,140.2 
				152.2,154.2 167.7,154.2 			"/>
			<path id="On_n_12_" class="st1" d="M139.2,162.8c-8.4,0-11.6,3.1-17.7,8.3v-7h-13.8v69.8h14.5v-54.8c3.4-2.5,6.2-4.4,9.3-4.4
				c3.1,0,5.2,1.6,5.2,5.1v54.1h14.5v-56.5C151.4,168.4,146.9,162.8,139.2,162.8z"/>
			<path id="On_O_12_" class="st1" d="M76.1,138.9c-16.9,0-24.7,10.8-24.7,24v48.3c0,13.2,7.8,24,24.7,24c16.9,0,24.7-10.8,24.7-24
				v-48.3C100.8,149.7,93,138.9,76.1,138.9z M84.7,210.8c0,7-2.1,10.4-8.6,10.4c-6.5,0-8.6-3.4-8.6-10.4v-47.5
				c0-7,2.1-10.4,8.6-10.4c6.5,0,8.6,3.4,8.6,10.4V210.8z"/>
			<g id="Package_12_">
				<path id="Bottom_Swoosh_12_" class="st1" d="M49.3,129.9c11.9-8.7,51.1-38.9,109.2-14.6c0,0,0-25.5,0-29.5
					C95.9,75,62.9,104.9,49.3,129.9z"/>
				<path id="Top_Swoosh_12_" class="st1" d="M90.4,79c-5.8,3.9-12.2,9.7-15.5,14.1c40.8-25.5,87.3-13.2,87.6-13.1
					c0.5-0.1,87.6-27.1,87.6-27.1S156.7,33.7,90.4,79z"/>
				<g id="Box_Outline_12_">
					<polygon id="Package_Fill_12_" class="st2" points="260.1,60.8 169,88.9 169,115.8 243.1,147.7 333.8,114.1 333.8,85.5 					
						"/>
					<path id="Package_Outline_12_" class="st1" d="M337.3,84.2c0,0,0.1-2.2-2.4-3.3c-0.1-0.1-74.4-24.3-74.4-24.3
						c-0.7-0.2-1.5-0.2-2.2,0l-91.4,28.3c-2.3,0.9-2.5,2.9-2.5,3.3v28.6c0,1.4,0.9,2.8,2.2,3.3l75.4,31.7l0,0
						c1.3,0.6,2.8,0.2,3.1,0.1l89.9-34.1c1.4-0.5,2.3-1.9,2.3-3.4L337.3,84.2z M171.6,93.5l68.3,27.3v22.1l-68.3-28.6V93.5z
						 M243.5,114.5l-64.7-25.8l80.5-24.9l63.6,20.8L243.5,114.5z M330.1,111.9l-83,31.5v-22.5l83-31.4V111.9z"/>
				</g>
				<g id="Address_12_">
					<g id="From_Address_12_">
						<path id="From_Address_Top_12_" class="st0" d="M196.7,90.5l16.7-5.6c0.7-0.2,1-0.9,0.7-1.5c-0.3-0.6-1.1-0.9-1.8-0.7
							l-16.7,5.6c-0.7,0.2-1,0.9-0.7,1.5C195.2,90.5,196,90.8,196.7,90.5z"/>
						<path id="From_Address_Bottom_12_" class="st0" d="M200.7,92.1c0.3,0.6,1.1,0.9,1.8,0.7l16.7-5.6c0.7-0.2,1-0.9,0.7-1.5
							c-0.3-0.6-1.1-0.9-1.8-0.7l-16.7,5.6C200.7,90.8,200.4,91.5,200.7,92.1z"/>
					</g>
					<g id="To_Address_12_">
						<path id="To_Address_Top_12_" class="st0" d="M235.7,90.4l22.8-8.2c0.9-0.3,1.4-1.3,1-2.1c-0.4-0.8-1.5-1.2-2.4-0.9l-22.8,8.2
							c-1,0.3-1.4,1.3-1,2.1C233.6,90.3,234.7,90.7,235.7,90.4z"/>
						<path id="To_Address_Middle_12_" class="st0" d="M240.2,92.5c0.4,0.8,1.5,1.2,2.5,0.8l22.6-8.2c0.9-0.3,1.4-1.3,1-2.1
							c-0.4-0.8-1.5-1.2-2.4-0.8l-22.6,8.2C240.3,90.7,239.8,91.7,240.2,92.5z"/>
						<path id="To_Address_Bottom_12_" class="st0" d="M248.2,95.4c0.4,0.8,1.5,1.2,2.5,0.8L273,88c0.9-0.3,1.3-1.3,0.9-2.1
							c-0.4-0.8-1.5-1.2-2.4-0.9l-22.4,8.2C248.2,93.6,247.8,94.6,248.2,95.4z"/>
					</g>
				</g>
			</g>
			<g>
				<path class="st0" d="M77.2,257.9c0.7-3.2,1.4-5.2,1.9-6c1.5-2.6,3.7-3.8,6.9-3.8c4,0,6.1,2,6.1,5.9c0,1.5-0.4,4-1.2,7.5
					c-0.6,2.7-1.3,4.7-1.9,5.7c-1.5,2.6-3.7,3.9-6.9,3.9c-4,0-6.1-2.1-6.1-5.9C76,263.8,76.4,261.4,77.2,257.9z M81.7,253
					c-0.3,0.6-0.9,2.1-1.4,4.5c-0.9,3.9-1.4,6.4-1.4,7.6c0,2.4,1.1,3.5,3.4,3.5c1.9,0,3.2-0.7,4.1-2.3c0.5-0.9,1-2.4,1.4-4.5
					c0.8-3.7,1.4-6.2,1.4-7.5c0-2.4-1.1-3.6-3.4-3.6C83.9,250.6,82.7,251.3,81.7,253z"/>
				<path class="st0" d="M97.2,258.8c0.2-1.1,0.4-2.3,0.6-3.5h2.5l-0.4,2.3c1.2-1.8,2.8-2.6,4.8-2.6c2,0,3.3,1.3,3.3,3.5
					c0,0.5-0.1,1.2-0.3,2.2l-2.1,10.1h-2.7l2.2-10.4c0.1-0.6,0.2-1.1,0.2-1.5c0-1.3-0.6-1.9-1.8-1.9c-2.6,0-3.7,2.2-4.6,6.4
					l-1.6,7.3h-2.7L97.2,258.8z"/>
				<path class="st0" d="M129.1,251.1h-5.4l0.6-2.6h13.6l-0.6,2.6H132l-4.2,19.6h-2.9L129.1,251.1z"/>
				<path class="st0" d="M141,255.2h2.7l-3.3,15.5h-2.7L141,255.2z M142.4,248.5h2.8l-0.6,2.7h-2.9L142.4,248.5z"/>
				<path class="st0" d="M148.8,258.8c0.2-1.1,0.4-2.3,0.6-3.5h2.5l-0.4,2.3c1.1-1.7,2.6-2.6,4.3-2.6c1.8,0,2.9,1,3.1,2.9
					c1.2-2,2.7-2.9,4.6-2.9c1.9,0,3.1,1.3,3.1,3.5c0,0.6-0.1,1.3-0.3,2.2l-2.1,10.1h-2.7l2.2-10.4c0.2-0.8,0.2-1.3,0.2-1.5
					c0-1.3-0.5-1.9-1.6-1.9c-2.3,0-3.3,2.2-4.2,6.4l-1.6,7.3h-2.6l2.2-10.4c0.1-0.6,0.2-1.1,0.2-1.5c0-1.3-0.6-1.9-1.6-1.9
					c-2.4,0-3.3,2.3-4.2,6.4l-1.6,7.3h-2.7L148.8,258.8z"/>
				<path class="st0" d="M175.8,271.1c-3.2,0-5.2-1.8-5.2-4.8c0-1,0.2-2.3,0.6-4c0.4-2,0.9-3.5,1.4-4.3c1.2-2.1,2.8-3,5.4-3
					c3.4,0,5.2,1.8,5.2,5c0,0.8-0.2,2-0.5,3.6h-8.9c-0.2,1-0.3,1.9-0.3,2.8c0,1.8,1,2.6,2.9,2.6c1.5,0,2.5-1,3-3.2h2.8
					C181.3,269.4,179.3,271.1,175.8,271.1z M180.3,261.5c0.1-0.6,0.2-1.2,0.2-1.6c0-1.9-0.8-2.9-2.5-2.9c-2.2,0-3.1,1.4-3.8,4.6
					H180.3z"/>
				<path class="st0" d="M199.4,257H197l0.4-1.8h2.4l0.5-2.2c0.7-3.6,1.7-4.9,4.8-4.9c0.6,0,1,0.1,1.4,0.2l-0.4,2
					c-0.4-0.1-0.7-0.1-0.9-0.1c-1.3,0-1.8,0.8-2.2,2.7l-0.5,2.2h2.6l-0.4,1.8h-2.6l-2.9,13.7h-2.7L199.4,257z"/>
				<path class="st0" d="M207.6,262.1c0.5-2.1,1-3.5,1.4-4.2c1.2-2.1,2.8-3,5.3-3c3.3,0,5.2,1.8,5.2,4.9c0,1-0.2,2.3-0.5,3.9
					c-0.5,2.2-1,3.7-1.5,4.5c-1.1,2-2.8,3-5.4,3c-3.2,0-5.1-1.9-5.1-4.8C207,265.3,207.2,263.9,207.6,262.1z M211.3,258.8
					c-0.2,0.4-0.7,1.7-1.1,3.8c-0.3,1.5-0.5,2.7-0.5,3.7c0,1.7,0.9,2.6,2.6,2.6c1.3,0,2.2-0.6,2.9-1.8c0.3-0.6,0.7-1.9,1.1-3.9
					c0.3-1.5,0.5-2.6,0.5-3.3c0-1.9-0.9-2.9-2.6-2.9C212.9,257,212,257.6,211.3,258.8z"/>
				<path class="st0" d="M225.5,258.6c0.2-1.1,0.4-2.3,0.5-3.4h2.6l-0.5,2.6c1-1.9,2.3-2.7,4.2-2.7c0.2,0,0.5,0,0.8,0.1l-0.5,2.4
					c-0.2,0-0.3,0-0.5,0c-2.9,0-4,1.6-4.8,5.3l-1.8,7.9h-2.7L225.5,258.6z"/>
				<path class="st0" d="M249.2,248.5h2.9l-4.2,19.7h7.6l-0.5,2.5h-10.5L249.2,248.5z"/>
				<path class="st0" d="M264.8,271.1c-3.2,0-5.2-1.8-5.2-4.8c0-1,0.2-2.3,0.6-4c0.4-2,0.9-3.5,1.4-4.3c1.2-2.1,2.8-3,5.4-3
					c3.4,0,5.2,1.8,5.2,5c0,0.8-0.2,2-0.5,3.6h-8.9c-0.2,1-0.3,1.9-0.3,2.8c0,1.8,1,2.6,2.9,2.6c1.5,0,2.5-1,3-3.2h2.8
					C270.3,269.4,268.3,271.1,264.8,271.1z M269.3,261.5c0.1-0.6,0.2-1.2,0.2-1.6c0-1.9-0.8-2.9-2.5-2.9c-2.2,0-3.1,1.4-3.8,4.6
					H269.3z"/>
				<path class="st0" d="M278.3,266c0,0.3-0.1,0.6-0.1,0.8c0,1.4,0.8,2.2,2.3,2.2c1.7,0,2.8-1.2,2.8-2.6c0-1.2-0.7-1.9-2.1-2.9
					c-2.2-1.4-3.7-2.2-3.7-4.5c0-2.6,1.9-4.3,5.3-4.3c3.2,0,4.8,1.3,4.8,3.9c0,0.2,0,0.4,0,0.6h-2.6c0-0.2,0-0.3,0-0.4
					c0-1.5-0.6-2.2-2.3-2.2c-1.5,0-2.5,0.8-2.5,2c0,1.4,1.4,1.9,3.1,3.1c1.9,1.3,2.8,2.4,2.8,4.3c0,3-2.2,4.9-5.8,4.9
					c-3.1,0-4.7-1.3-4.7-3.7c0-0.4,0.1-0.9,0.2-1.3H278.3z"/>
				<path class="st0" d="M293.3,266c0,0.3-0.1,0.6-0.1,0.8c0,1.4,0.8,2.2,2.3,2.2c1.7,0,2.8-1.2,2.8-2.6c0-1.2-0.7-1.9-2.1-2.9
					c-2.2-1.4-3.7-2.2-3.7-4.5c0-2.6,1.9-4.3,5.3-4.3c3.2,0,4.8,1.3,4.8,3.9c0,0.2,0,0.4,0,0.6h-2.6c0-0.2,0-0.3,0-0.4
					c0-1.5-0.6-2.2-2.3-2.2c-1.5,0-2.5,0.8-2.5,2c0,1.4,1.4,1.9,3.1,3.1c1.9,1.3,2.8,2.4,2.8,4.3c0,3-2.2,4.9-5.8,4.9
					c-3.1,0-4.7-1.3-4.7-3.7c0-0.4,0.1-0.9,0.2-1.3H293.3z"/>
			</g>
		</g>
		<path id="Registered_Mark_14_" class="st0" d="M335.9,155.8c0.9,0.9,1.4,2.1,1.4,3.4c0,1.3-0.5,2.5-1.4,3.4
			c-1,0.9-2.2,1.5-3.5,1.5c-1.3,0-2.5-0.5-3.4-1.4c-0.9-0.9-1.4-2.1-1.4-3.4c0-1.3,0.5-2.5,1.4-3.5c0.9-0.9,2.1-1.4,3.4-1.4
			S335,154.9,335.9,155.8z M335.6,156.1c-0.8-0.8-1.9-1.3-3.1-1.3c-1.2,0-2.3,0.5-3.1,1.3c-0.8,0.9-1.3,2-1.3,3.1
			c0,1.2,0.5,2.2,1.3,3.1c0.8,0.8,1.9,1.3,3.1,1.3c1.1,0,2.3-0.5,3.1-1.3c0.8-0.8,1.3-1.9,1.3-3.1C336.9,158,336.4,157,335.6,156.1z
			 M334.9,157.9c0,0.8-0.5,1.4-1.3,1.5l1.3,2.6H334l-1.2-2.5h-1.4v2.5h-0.8v-5.6h2C334.2,156.3,334.9,156.8,334.9,157.9z
			 M331.3,156.9v2.1h1.1c1.2,0,1.7-0.2,1.7-1.1c0-0.7-0.6-1-1.7-1H331.3z"/>
	</g>
</g>
</svg>
