<svg id="OnTrac_Logo" xmlns="http://www.w3.org/2000/svg" viewBox="0 0 200 72"><style>.st3{fill:#ffcd00}</style><path class="st3" d="M0 56.4c8.2-6.1 35.6-27 75.8-10.2V25.8C32.3 18.3 9.4 39 0 56.4z"/><path class="st3" d="M28.5 21.1c-4 2.7-7.7 6-10.8 9.7 28.3-17.7 60.6-9.1 60.9-9L139.4 3S74.6-10.3 28.5 21.1z"/><path fill="#fff" d="M146.4 8.5L83 28v18.7l51.6 22.1 63-23.3V25.6z"/><path class="st3" d="M200 24.7c0-1-.7-2-1.7-2.3L146.6 5.5c-.5-.2-1-.2-1.5 0L81.7 25.1c-1 .3-1.7 1.3-1.8 2.3v19.8c0 1 .6 1.9 1.5 2.3l52.4 22c.7.3 1.4.3 2.2 0l62.4-23.6c1-.4 1.6-1.3 1.6-2.4V24.7zM84.9 31.2l47.4 19v15.3l-47.4-20V31.2zm50 14.6l-45-17.9 55.9-17.3L190 25l-55.1 20.8zm60.1-1.9l-57.7 21.8V50.2L195 28.4v15.5z"/><path d="M102.3 29.1l11.6-3.9c.4-.1.6-.6.6-1 0-.1 0-.1-.1-.2-.2-.4-.8-.6-1.3-.5l-11.5 4c-.4.1-.6.5-.6.9 0 .1 0 .1.1.2.3.5.7.7 1.2.5zm2.8 1.1c.2.4.8.6 1.3.5l11.6-3.9c.4-.1.6-.5.6-.9 0-.1 0-.1-.1-.2-.2-.4-.7-.6-1.2-.5l-11.7 4.1c-.4.1-.6.6-.5.9zm24.3-1.2l15.9-5.8c.6-.2.9-.7.7-1.4 0-.1 0-.1-.1-.2-.3-.6-1-.8-1.7-.6l-15.9 5.7c-.6.2-.9.6-.8 1.2 0 .1.1.2.1.2.4.9 1.1 1.1 1.8.9zm3.2 1.5c.3.6 1 .8 1.7.6l15.7-5.8c.6-.2.9-.7.7-1.4 0-.1 0-.1-.1-.2-.3-.6-1-.8-1.7-.6l-15.7 5.8c-.6.2-.9.7-.7 1.3.1.1.1.2.1.3zm5.5 2.1c.3.6 1 .9 1.7.6l15.5-5.8c.6-.2.8-.7.6-1.3V26c-.3-.6-1-.9-1.7-.6l-15.5 5.5c-.6.1-1 .7-.8 1.3.1.1.1.2.2.4z" fill="#00205c"/></svg>