<?xml version="1.0" encoding="utf-8"?>
<!-- Generator: Adobe Illustrator 22.0.1, SVG Export Plug-In . SVG Version: 6.00 Build 0)  -->
<svg version="1.1" id="OnTrac_Logo" xmlns="http://www.w3.org/2000/svg" xmlns:xlink="http://www.w3.org/1999/xlink" x="0px"
	 y="0px" viewBox="0 0 200 72" style="enable-background:new 0 0 200 72;" xml:space="preserve">
<style type="text/css">
	.st0{display:none;}
	.st1{display:inline;}
	.st2{fill:#00205C;}
	.st3{fill:#FFCD00;}
	.st4{fill:#FFFFFF;}
</style>
<g id="Tagline_International" class="st0">
	<g class="st1">
		<polygon id="Tagline_Mail_l" class="st2" points="350.5,210.1 354.6,210.1 347.3,244.6 343.1,244.6 		"/>
		<polygon id="Tagline_Mail_i_Tittle" class="st2" points="326.4,210.1 330.8,210.1 329.9,214.3 325.5,214.3 		"/>
		<polygon id="Tagline_Mail_i_Stem" class="st2" points="324.3,220.5 328.4,220.5 323.3,244.6 319.2,244.6 		"/>
		<path class="st2" d="M293.3,244.8c-3.9,0-6.3-2.5-6.3-6.4c0-6.5,4.1-9.3,12.7-9.3c0.8,0,1.7,0.1,2.6,0.1c0.2-1.2,0.4-2.3,0.4-3.2
			c0-2-1.3-3.1-3.9-3.1s-4.1,1.2-4.4,3.8H290c1-4.8,3.7-6.9,8.8-6.9c5.5,0,8.1,2,8.1,6.1c0,1.1-0.2,2.5-0.6,4.4l-2,9.2
			c-0.3,1.5-0.6,3.2-0.7,4.9h-4.1l0.6-3.7C298.4,243.5,296.1,244.8,293.3,244.8z M300.8,232.1c-6.5,0-9.6,1.8-9.6,5.9
			c0,2.2,1.3,3.4,3.4,3.4c3.8,0,6.3-3.2,7.2-9.3C301.4,232.1,301.1,232.1,300.8,232.1z"/>
		<path id="Tagline_Mail_M" class="st2" d="M242.1,210.1h7.6l1.9,20.5c0.2,2.5,0.3,4.8,0.3,7c0,1.3,0,2.7-0.1,4h0.3
			c0.7-2.9,1.5-5.2,2.3-6.8l12.5-24.7h7.7l-7.3,34.5H263l5.3-24.8c0.3-1.5,0.9-3.9,1.8-7.4h-0.4l-16.1,32.2h-4.8l-2.3-25.4
			c-0.2-1.3-0.2-3.6-0.4-7H246l-6.9,32.4h-4.3L242.1,210.1z"/>
	</g>
	<g class="st1">
		<polygon id="Tagline_International_l" class="st2" points="186.7,210.1 190.8,210.1 183.5,244.6 179.3,244.6 		"/>
		<path class="st2" d="M153.5,244.8c-3.9,0-6.3-2.5-6.3-6.4c0-6.5,4.1-9.3,12.7-9.3c0.8,0,1.7,0.1,2.6,0.1c0.2-1.2,0.4-2.3,0.4-3.2
			c0-2-1.3-3.1-3.9-3.1c-2.6,0-4.1,1.2-4.5,3.8h-4.4c1-4.8,3.7-6.9,8.8-6.9c5.5,0,8.1,2,8.1,6.1c0,1.1-0.2,2.5-0.6,4.4l-2,9.2
			c-0.3,1.5-0.6,3.2-0.7,4.9h-4.1l0.6-3.7C158.5,243.5,156.3,244.8,153.5,244.8z M160.9,232.1c-6.5,0-9.6,1.8-9.6,5.9
			c0,2.2,1.3,3.4,3.4,3.4c3.8,0,6.3-3.2,7.2-9.3C161.6,232.1,161.3,232.1,160.9,232.1z"/>
		<path id="Tagline_International_n_2" class="st2" d="M118.2,226c0.4-1.7,0.7-3.6,1-5.5h3.8l-0.7,3.5c1.9-2.7,4.3-4.1,7.4-4.1
			c3.2,0,5.1,2,5.1,5.5c0,0.8-0.2,1.9-0.5,3.4l-3.3,15.7h-4.1l3.4-16.1c0.2-1,0.3-1.7,0.3-2.3c0-2-1-3-2.8-3c-4,0-5.7,3.4-7.1,10
			l-2.4,11.4h-4.1L118.2,226z"/>
		<path class="st2" d="M83.5,231.2c0.7-3.3,1.5-5.5,2.1-6.5c1.8-3.2,4.4-4.7,8.2-4.7c5.2,0,8.1,2.8,8.1,7.6c0,1.5-0.2,3.5-0.8,6
			c-0.7,3.3-1.6,5.7-2.3,7c-1.8,3.2-4.3,4.6-8.3,4.6c-4.9,0-7.9-3-7.9-7.5C82.6,236.2,82.9,234,83.5,231.2z M89.3,226.1
			c-0.3,0.6-1,2.6-1.8,5.8c-0.5,2.2-0.8,4.1-0.8,5.7c0,2.6,1.4,4,4,4c2.1,0,3.4-0.9,4.4-2.8c0.5-0.9,1.1-2.9,1.8-6
			c0.5-2.3,0.8-4,0.8-5.2c0-2.9-1.3-4.5-4-4.5C91.7,223.3,90.4,224.2,89.3,226.1z"/>
		<polygon id="Tagline_International_i_Stem" class="st2" points="63.8,220.5 67.9,220.5 62.8,244.6 58.6,244.6 		"/>
		<polygon id="Tagline_International_i_Tittle" class="st2" points="65.9,210.1 70.3,210.1 69.4,214.3 65,214.3 		"/>
		<path id="Tagline_International_t_2" class="st2" d="M38.3,244.6c-3.2,0-4.8-1.3-4.8-4.1c0-1,0.2-2.2,0.5-3.6l2.9-13.5H33l0.6-2.8
			h3.9l1-4.8l4.5-1.5l-1.3,6.3h4.6l-0.6,2.8H41l-3.1,14.5c-0.2,0.8-0.2,1.3-0.2,1.6c0,1.5,0.8,2,3,2c0.3,0,0.7-0.1,1.1-0.1l-0.7,3.2
			L38.3,244.6L38.3,244.6z"/>
		<path class="st2" d="M7.2,244.8c-3.9,0-6.3-2.5-6.3-6.4c0-6.5,4.1-9.3,12.7-9.3c0.8,0,1.7,0.1,2.6,0.1c0.2-1.2,0.4-2.3,0.4-3.2
			c0-2-1.3-3.1-3.9-3.1s-4.1,1.2-4.4,3.8H3.9c1-4.8,3.7-6.9,8.8-6.9c5.5,0,8.1,2,8.1,6.1c0,1.1-0.2,2.5-0.6,4.4l-2,9.2
			c-0.3,1.5-0.6,3.2-0.7,4.9h-4.1l0.6-3.7C12.2,243.5,10,244.8,7.2,244.8z M14.6,232.1c-6.5,0-9.6,1.8-9.6,5.9
			c0,2.2,1.3,3.4,3.4,3.4c3.8,0,6.3-3.2,7.2-9.3C15.3,232.1,15,232.1,14.6,232.1z"/>
		<path id="Tagline_International_n_1" class="st2" d="M-28.1,226c0.4-1.7,0.7-3.6,1-5.5h3.9l-0.7,3.5c1.9-2.7,4.3-4.1,7.4-4.1
			c3.2,0,5.1,2,5.1,5.5c0,0.8-0.2,1.9-0.5,3.4l-3.3,15.7h-4.1l3.4-16.1c0.2-1,0.3-1.7,0.3-2.3c0-2-1-3-2.8-3c-4,0-5.7,3.4-7.1,10
			l-2.4,11.4H-32L-28.1,226z"/>
		<path id="Tagline_International_r" class="st2" d="M-56.3,225.9c0.4-1.8,0.6-3.6,0.8-5.3h4l-0.7,4c1.5-2.9,3.6-4.3,6.6-4.3
			c0.4,0,0.8,0.1,1.3,0.1l-0.8,3.7c-0.3,0-0.5,0-0.8,0c-4.5,0-6.2,2.4-7.5,8.2l-2.7,12.2h-4.1L-56.3,225.9z"/>
		<path class="st2" d="M-84,245.1c-5,0-8-2.8-8-7.5c0-1.5,0.3-3.6,0.9-6.2c0.7-3.2,1.4-5.5,2.2-6.7c1.8-3.3,4.4-4.7,8.3-4.7
			c5.2,0,8,2.7,8,7.8c0,1.3-0.3,3.2-0.8,5.6h-13.9c-0.3,1.6-0.5,3-0.5,4.4c0,2.7,1.5,4.1,4.5,4.1c2.4,0,3.9-1.6,4.7-4.9h4.3
			C-75.5,242.6-78.5,245.1-84,245.1z M-77,230.3c0.1-1,0.2-1.8,0.2-2.5c0-3-1.3-4.5-3.9-4.5c-3.3,0-4.8,2.2-5.9,7.1h9.6
			C-77,230.4-77,230.3-77,230.3z"/>
		<path id="Tagline_International_t_1" class="st2" d="M-112.3,244.6c-3.2,0-4.8-1.3-4.8-4.1c0-1,0.2-2.2,0.5-3.6l2.9-13.5h-3.9
			l0.6-2.8h3.9l1-4.8l4.5-1.5l-1.3,6.3h4.6l-0.6,2.8h-4.7l-3.1,14.5c-0.2,0.8-0.2,1.3-0.2,1.6c0,1.5,0.8,2,3,2
			c0.3,0,0.7-0.1,1.2-0.1l-0.7,3.2L-112.3,244.6L-112.3,244.6z"/>
		<path id="Tagline_International_n" class="st2" d="M-146.5,226c0.4-1.7,0.7-3.6,1-5.5h3.9l-0.7,3.5c1.9-2.7,4.3-4.1,7.4-4.1
			c3.2,0,5.1,2,5.1,5.5c0,0.8-0.2,1.9-0.5,3.4l-3.3,15.7h-4.1l3.4-16.1c0.2-1,0.3-1.7,0.3-2.3c0-2-1-3-2.8-3c-4,0-5.7,3.4-7.1,10
			l-2.4,11.4h-4.1L-146.5,226z"/>
		<polygon id="Tagline_International_I" class="st2" points="-167.3,210.1 -162.8,210.1 -170.1,244.6 -174.7,244.6 		"/>
	</g>
</g>
<g>
	<path class="st3" d="M0,56.4c8.2-6.1,35.6-27,75.8-10.2V25.8C32.3,18.3,9.4,39,0,56.4z"/>
	<path class="st3" d="M28.5,21.1c-4,2.7-7.7,6-10.8,9.7c28.3-17.7,60.6-9.1,60.9-9L139.4,3C139.4,3,74.6-10.3,28.5,21.1z"/>
	<polygon class="st4" points="146.4,8.5 83,28 83,46.7 134.6,68.8 197.6,45.5 197.6,25.6 	"/>
	<path class="st3" d="M200,24.7c0-1-0.7-2-1.7-2.3L146.6,5.5c-0.5-0.2-1-0.2-1.5,0L81.7,25.1c-1,0.3-1.7,1.3-1.8,2.3v19.8
		c0,1,0.6,1.9,1.5,2.3l52.4,22l0,0c0.7,0.3,1.4,0.3,2.2,0l62.4-23.6c1-0.4,1.6-1.3,1.6-2.4V24.7L200,24.7z M84.9,31.2l47.4,19v15.3
		l-47.4-20V31.2z M134.9,45.8l-45-17.9l55.9-17.3L190,25L134.9,45.8z M195,43.9l-57.7,21.8V50.2L195,28.4V43.9z"/>
	<path class="st2" d="M102.3,29.1l11.6-3.9c0.4-0.1,0.6-0.6,0.6-1c0-0.1,0-0.1-0.1-0.2c-0.2-0.4-0.8-0.6-1.3-0.5l-11.5,4
		c-0.4,0.1-0.6,0.5-0.6,0.9c0,0.1,0,0.1,0.1,0.2C101.4,29.1,101.8,29.3,102.3,29.1z"/>
	<path class="st2" d="M105.1,30.2c0.2,0.4,0.8,0.6,1.3,0.5l11.6-3.9c0.4-0.1,0.6-0.5,0.6-0.9c0-0.1,0-0.1-0.1-0.2
		c-0.2-0.4-0.7-0.6-1.2-0.5l-11.7,4.1C105.2,29.4,105,29.9,105.1,30.2z"/>
	<path class="st2" d="M129.4,29l15.9-5.8c0.6-0.2,0.9-0.7,0.7-1.4c0-0.1,0-0.1-0.1-0.2c-0.3-0.6-1-0.8-1.7-0.6l-15.9,5.7
		c-0.6,0.2-0.9,0.6-0.8,1.2c0,0.1,0.1,0.2,0.1,0.2C128,29,128.7,29.2,129.4,29z"/>
	<path class="st2" d="M132.6,30.5c0.3,0.6,1,0.8,1.7,0.6l15.7-5.8c0.6-0.2,0.9-0.7,0.7-1.4c0-0.1,0-0.1-0.1-0.2
		c-0.3-0.6-1-0.8-1.7-0.6l-15.7,5.8c-0.6,0.2-0.9,0.7-0.7,1.3C132.6,30.3,132.6,30.4,132.6,30.5z"/>
	<path class="st2" d="M138.1,32.6c0.3,0.6,1,0.9,1.7,0.6l15.5-5.8c0.6-0.2,0.8-0.7,0.6-1.3V26c-0.3-0.6-1-0.9-1.7-0.6l-15.5,5.5
		c-0.6,0.1-1,0.7-0.8,1.3C138,32.3,138,32.4,138.1,32.6z"/>
</g>
</svg>
