<svg id="Layer_1" xmlns="http://www.w3.org/2000/svg" viewBox="0 0 200 130"><style>.st0{fill:#00205c}.st1{fill:#ffcd00}</style><path class="st0" d="M181.5 113.6c0 5.6-2 7.9-5.6 7.9-3.6 0-5.6-2.4-5.6-7.9v-18c0-5.6 2-7.9 5.6-7.9 3.6 0 5.6 2.3 5.6 7.9v1.3h10.1c-.2-10.4-4.3-17.5-15.7-17.5-11.4 0-15.7 7.4-15.7 17.9v14.2c0 10.6 4.2 18 15.7 18s15.7-7.4 15.7-18v-1.3h-10.1v3.4zM156 92.5c0-8.8-5.3-13.2-14.7-13.2s-15.7 5.4-16.2 15.1h10.1c.2-4.2 1.2-6.8 5.8-6.8 3.2 0 5 2.2 5 6.2v2.9c-14.5 5.5-21.5 11.4-21.5 22-.6 5.3 3.1 10.2 8.4 10.9.6.1 1.2.1 1.8.1 4.4 0 8.6-1.7 11.8-4.7 0 1.2.5 2.4.6 3.8h9.7c-.3-1.7-.6-3.4-.6-5.1l-.2-31.2zm-10.2 24.3c-1.4 2.5-3.9 4.2-6.8 4.6-3.2 0-4.7-1.3-4.7-4.4 0-4.2 2.2-7.6 11.4-13l.1 12.8zM118.4 89c2.2 0 4.4.3 6.5 1V79.4h-2.1c-4.7-.1-9 2.4-11.4 6.5v-5.6h-9.7v48.6h10.1V95.5c0-3.6 2.9-6.5 6.5-6.5h.1z"/><path class="st0" d="M82.2 128.8h11.2V73.4h10.8v-9.7H71.4v9.7h10.8z"/><path class="st1" d="M62.4 79.4c-5.8 0-8 2.2-12.2 5.8v-4.9h-9.5v48.6h10.1v-38c1.8-1.7 4.1-2.7 6.5-3 1.8-.2 3.4 1 3.6 2.8v38.1H71V89.6c-.1-6.4-3.3-10.2-8.6-10.2zM18.6 62.8C7 62.8 1.5 70.3 1.5 79.5V113c0 9.2 5.4 16.7 17.1 16.7s17.1-7.4 17.1-16.7V79.5c0-9.2-5.4-16.7-17.1-16.7zm6 50c0 4.9-1.4 7.2-5.9 7.2s-5.9-2.3-5.9-7.2v-33c0-4.9 1.4-7.2 5.9-7.2s5.9 2.4 5.9 7.2v33zM0 56.5c8.2-6.1 35.6-27 75.8-10.2V25.9C32.3 18.4 9.4 39.1 0 56.5z"/><path class="st1" d="M28.5 21.2c-4 2.7-7.7 6-10.8 9.7 28.3-17.7 60.6-9.1 60.9-9l60.8-18.8S74.6-10.2 28.5 21.2z"/><path fill="#fff" d="M146.4 8.6L83 28.1v18.7l51.6 22.1 63-23.3V25.7z"/><path class="st1" d="M200 24.8c0-1-.7-2-1.7-2.3L146.6 5.6c-.5-.2-1-.2-1.5 0L81.7 25.2c-1 .3-1.7 1.3-1.8 2.3v19.8c0 1 .6 1.9 1.5 2.3l52.4 22c.7.3 1.4.3 2.2 0L198.4 48c1-.4 1.6-1.3 1.6-2.4V24.8zM84.9 31.3l47.4 19v15.3l-47.4-20V31.3zm50 14.6L89.9 28l55.9-17.3L190 25.1l-55.1 20.8zM195 44l-57.7 21.8V50.3L195 28.5V44z"/><path class="st0" d="M102.3 29.2l11.6-3.9c.4-.1.6-.6.6-1 0-.1 0-.1-.1-.2-.2-.4-.8-.6-1.3-.5l-11.5 4c-.4.1-.6.5-.6.9 0 .1 0 .1.1.2.3.5.7.7 1.2.5zm2.8 1.1c.2.4.8.6 1.3.5l11.6-3.9c.4-.1.6-.5.6-.9 0-.1 0-.1-.1-.2-.2-.4-.7-.6-1.2-.5l-11.7 4.1c-.4.1-.6.6-.5.9zm24.3-1.2l15.9-5.8c.6-.2.9-.7.7-1.4 0-.1 0-.1-.1-.2-.3-.6-1-.8-1.7-.6l-15.9 5.7c-.6.2-.9.6-.8 1.2 0 .1.1.2.1.2.4.9 1.1 1.1 1.8.9zm3.2 1.5c.3.6 1 .8 1.7.6l15.7-5.8c.6-.2.9-.7.7-1.4 0-.1 0-.1-.1-.2-.3-.6-1-.8-1.7-.6L133.2 29c-.6.2-.9.7-.7 1.3.1.1.1.2.1.3zm5.5 2.1c.3.6 1 .9 1.7.6l15.5-5.8c.6-.2.8-.7.6-1.3v-.1c-.3-.6-1-.9-1.7-.6L138.7 31c-.6.1-1 .7-.8 1.3.1.1.1.2.2.4zm60.9 42c.6.6 1 1.5 1 2.4 0 .9-.3 1.8-1 2.4-.6.6-1.5 1-2.4 1-.9 0-1.8-.3-2.4-1-1.3-1.2-1.4-3.3-.2-4.6l.2-.2c.6-.6 1.4-1 2.4-1 .9 0 1.8.3 2.4 1zm-.2.2c-.6-.6-1.4-.9-2.2-.9s-1.6.3-2.2.9-.9 1.4-.9 2.2c0 .8.3 1.6.9 2.2s1.4.9 2.2.9 1.6-.3 2.2-.9.9-1.4.9-2.2c.1-.9-.2-1.8-.9-2.4v.2zm-.5 1.2c0 .6-.4 1-1 1l.9 1.8h-.6l-.9-1.8h-1V79h-.6v-4.1h1.4c1 0 1.6.3 1.6 1l.2.2zm-2.5-.6v1.4h.8c.8 0 1.2-.2 1.2-.7s-.4-.7-1.2-.7h-.8z"/></svg>