<svg id="Layer_1" xmlns="http://www.w3.org/2000/svg" viewBox="0 0 387.7 320.4"><style>.st0{fill:#00205c}.st1{fill:#ffcd00}</style><path id="Trac_c_12_" class="st0" d="M310.7 211.8c0 8.1-2.8 11.4-8 11.4s-8.1-3.4-8.1-11.4v-25.7c0-8 2.9-11.4 8.1-11.4 5.2 0 8 3.4 8 11.4v1.8h14.5c-.3-14.9-6.2-25.2-22.6-25.2-16.6 0-22.6 10.6-22.6 26v20.5c0 15.3 6 25.9 22.6 25.9s22.6-10.6 22.6-25.9v-1.8h-14.5v4.4z"/><path id="Trac_a_12_" class="st0" d="M273.9 181.7c0-12.7-7.7-18.9-21.2-18.9-13.6 0-22.6 7.7-23.4 21.8H244c.2-6 1.7-9.9 8.3-9.9 4.8 0 7.1 3.1 7.1 9v4.2c-20.9 7.9-31 16.4-31 31.7 0 9 4.9 15.7 14.8 15.7 7 0 11.6-2.3 17-6.7.1 1.7.7 3.5.8 5.5h13.9c-.4-2.3-.9-5.2-.9-7.4v-45zm-14.5 35.1c-2.5 3.5-5.7 6.5-9.7 6.5-4.4 0-6.8-1.8-6.8-6.3 0-6.1 3.3-10.9 16.5-18.4v18.2z"/><path id="Trac_r_12_" class="st0" d="M219.8 176.5c4.3 0 6.8.8 9.3 1.4v-15.2h-3c-6.9 0-13 3.5-16.5 9.5h-.3V164h-13.9v69.8h14.5v-48c.2-6.1 5-9.3 9.9-9.3z"/><path id="Trac_T_12_" class="st0" d="M167.7 233.9h16.1v-79.7h15.6v-14h-47.2v14h15.5z"/><path id="On_n_12_" class="st1" d="M139.2 162.8c-8.4 0-11.6 3.1-17.7 8.3v-7h-13.8v69.8h14.5v-54.8c3.4-2.5 6.2-4.4 9.3-4.4 3.1 0 5.2 1.6 5.2 5.1v54.1h14.5v-56.5c.2-9-4.3-14.6-12-14.6z"/><path id="On_O_12_" class="st1" d="M76.1 138.9c-16.9 0-24.7 10.8-24.7 24v48.3c0 13.2 7.8 24 24.7 24s24.7-10.8 24.7-24v-48.3c0-13.2-7.8-24-24.7-24zm8.6 71.9c0 7-2.1 10.4-8.6 10.4s-8.6-3.4-8.6-10.4v-47.5c0-7 2.1-10.4 8.6-10.4s8.6 3.4 8.6 10.4v47.5z"/><g id="Package_12_"><path id="Bottom_Swoosh_12_" class="st1" d="M49.3 129.9c11.9-8.7 51.1-38.9 109.2-14.6V85.8C95.9 75 62.9 104.9 49.3 129.9z"/><path id="Top_Swoosh_12_" class="st1" d="M90.4 79c-5.8 3.9-12.2 9.7-15.5 14.1 40.8-25.5 87.3-13.2 87.6-13.1.5-.1 87.6-27.1 87.6-27.1S156.7 33.7 90.4 79z"/><g id="Box_Outline_12_"><path id="Package_Fill_12_" fill="#fff" d="M260.1 60.8L169 88.9v26.9l74.1 31.9 90.7-33.6V85.5z"/><path id="Package_Outline_12_" class="st1" d="M337.3 84.2s.1-2.2-2.4-3.3c-.1-.1-74.4-24.3-74.4-24.3-.7-.2-1.5-.2-2.2 0l-91.4 28.3c-2.3.9-2.5 2.9-2.5 3.3v28.6c0 1.4.9 2.8 2.2 3.3l75.4 31.7c1.3.6 2.8.2 3.1.1l89.9-34.1c1.4-.5 2.3-1.9 2.3-3.4V84.2zm-165.7 9.3l68.3 27.3v22.1l-68.3-28.6V93.5zm71.9 21l-64.7-25.8 80.5-24.9 63.6 20.8-79.4 29.9zm86.6-2.6l-83 31.5v-22.5l83-31.4v22.4z"/></g><g id="Address_12_"><g id="From_Address_12_"><path id="From_Address_Top_12_" class="st0" d="M196.7 90.5l16.7-5.6c.7-.2 1-.9.7-1.5-.3-.6-1.1-.9-1.8-.7l-16.7 5.6c-.7.2-1 .9-.7 1.5.3.7 1.1 1 1.8.7z"/><path id="From_Address_Bottom_12_" class="st0" d="M200.7 92.1c.3.6 1.1.9 1.8.7l16.7-5.6c.7-.2 1-.9.7-1.5-.3-.6-1.1-.9-1.8-.7l-16.7 5.6c-.7.2-1 .9-.7 1.5z"/></g><g id="To_Address_12_"><path id="To_Address_Top_12_" class="st0" d="M235.7 90.4l22.8-8.2c.9-.3 1.4-1.3 1-2.1-.4-.8-1.5-1.2-2.4-.9l-22.8 8.2c-1 .3-1.4 1.3-1 2.1.3.8 1.4 1.2 2.4.9z"/><path id="To_Address_Middle_12_" class="st0" d="M240.2 92.5c.4.8 1.5 1.2 2.5.8l22.6-8.2c.9-.3 1.4-1.3 1-2.1-.4-.8-1.5-1.2-2.4-.8l-22.6 8.2c-1 .3-1.5 1.3-1.1 2.1z"/><path id="To_Address_Bottom_12_" class="st0" d="M248.2 95.4c.4.8 1.5 1.2 2.5.8L273 88c.9-.3 1.3-1.3.9-2.1s-1.5-1.2-2.4-.9l-22.4 8.2c-.9.4-1.3 1.4-.9 2.2z"/></g></g></g><path class="st0" d="M77.2 257.9c.7-3.2 1.4-5.2 1.9-6 1.5-2.6 3.7-3.8 6.9-3.8 4 0 6.1 2 6.1 5.9 0 1.5-.4 4-1.2 7.5-.6 2.7-1.3 4.7-1.9 5.7-1.5 2.6-3.7 3.9-6.9 3.9-4 0-6.1-2.1-6.1-5.9 0-1.4.4-3.8 1.2-7.3zm4.5-4.9c-.3.6-.9 2.1-1.4 4.5-.9 3.9-1.4 6.4-1.4 7.6 0 2.4 1.1 3.5 3.4 3.5 1.9 0 3.2-.7 4.1-2.3.5-.9 1-2.4 1.4-4.5.8-3.7 1.4-6.2 1.4-7.5 0-2.4-1.1-3.6-3.4-3.6-1.9-.1-3.1.6-4.1 2.3zm15.5 5.8c.2-1.1.4-2.3.6-3.5h2.5l-.4 2.3c1.2-1.8 2.8-2.6 4.8-2.6s3.3 1.3 3.3 3.5c0 .5-.1 1.2-.3 2.2l-2.1 10.1h-2.7l2.2-10.4c.1-.6.2-1.1.2-1.5 0-1.3-.6-1.9-1.8-1.9-2.6 0-3.7 2.2-4.6 6.4l-1.6 7.3h-2.7l2.6-11.9zm31.9-7.7h-5.4l.6-2.6h13.6l-.6 2.6H132l-4.2 19.6h-2.9l4.2-19.6zm11.9 4.1h2.7l-3.3 15.5h-2.7l3.3-15.5zm1.4-6.7h2.8l-.6 2.7h-2.9l.7-2.7zm6.4 10.3c.2-1.1.4-2.3.6-3.5h2.5l-.4 2.3c1.1-1.7 2.6-2.6 4.3-2.6 1.8 0 2.9 1 3.1 2.9 1.2-2 2.7-2.9 4.6-2.9 1.9 0 3.1 1.3 3.1 3.5 0 .6-.1 1.3-.3 2.2l-2.1 10.1h-2.7l2.2-10.4c.2-.8.2-1.3.2-1.5 0-1.3-.5-1.9-1.6-1.9-2.3 0-3.3 2.2-4.2 6.4l-1.6 7.3h-2.6l2.2-10.4c.1-.6.2-1.1.2-1.5 0-1.3-.6-1.9-1.6-1.9-2.4 0-3.3 2.3-4.2 6.4l-1.6 7.3h-2.7l2.6-11.8zm27 12.3c-3.2 0-5.2-1.8-5.2-4.8 0-1 .2-2.3.6-4 .4-2 .9-3.5 1.4-4.3 1.2-2.1 2.8-3 5.4-3 3.4 0 5.2 1.8 5.2 5 0 .8-.2 2-.5 3.6h-8.9c-.2 1-.3 1.9-.3 2.8 0 1.8 1 2.6 2.9 2.6 1.5 0 2.5-1 3-3.2h2.8c-.9 3.6-2.9 5.3-6.4 5.3zm4.5-9.6c.1-.6.2-1.2.2-1.6 0-1.9-.8-2.9-2.5-2.9-2.2 0-3.1 1.4-3.8 4.6h6.1zm19.1-4.5H197l.4-1.8h2.4l.5-2.2c.7-3.6 1.7-4.9 4.8-4.9.6 0 1 .1 1.4.2l-.4 2c-.4-.1-.7-.1-.9-.1-1.3 0-1.8.8-2.2 2.7l-.5 2.2h2.6l-.4 1.8h-2.6l-2.9 13.7h-2.7l2.9-13.6zm8.2 5.1c.5-2.1 1-3.5 1.4-4.2 1.2-2.1 2.8-3 5.3-3 3.3 0 5.2 1.8 5.2 4.9 0 1-.2 2.3-.5 3.9-.5 2.2-1 3.7-1.5 4.5-1.1 2-2.8 3-5.4 3-3.2 0-5.1-1.9-5.1-4.8 0-1.1.2-2.5.6-4.3zm3.7-3.3c-.2.4-.7 1.7-1.1 3.8-.3 1.5-.5 2.7-.5 3.7 0 1.7.9 2.6 2.6 2.6 1.3 0 2.2-.6 2.9-1.8.3-.6.7-1.9 1.1-3.9.3-1.5.5-2.6.5-3.3 0-1.9-.9-2.9-2.6-2.9-1.3 0-2.2.6-2.9 1.8zm14.2-.2c.2-1.1.4-2.3.5-3.4h2.6l-.5 2.6c1-1.9 2.3-2.7 4.2-2.7.2 0 .5 0 .8.1l-.5 2.4h-.5c-2.9 0-4 1.6-4.8 5.3l-1.8 7.9h-2.7l2.7-12.2zm23.7-10.1h2.9l-4.2 19.7h7.6l-.5 2.5h-10.5l4.7-22.2zm15.6 22.6c-3.2 0-5.2-1.8-5.2-4.8 0-1 .2-2.3.6-4 .4-2 .9-3.5 1.4-4.3 1.2-2.1 2.8-3 5.4-3 3.4 0 5.2 1.8 5.2 5 0 .8-.2 2-.5 3.6h-8.9c-.2 1-.3 1.9-.3 2.8 0 1.8 1 2.6 2.9 2.6 1.5 0 2.5-1 3-3.2h2.8c-.9 3.6-2.9 5.3-6.4 5.3zm4.5-9.6c.1-.6.2-1.2.2-1.6 0-1.9-.8-2.9-2.5-2.9-2.2 0-3.1 1.4-3.8 4.6h6.1zm9 4.5c0 .3-.1.6-.1.8 0 1.4.8 2.2 2.3 2.2 1.7 0 2.8-1.2 2.8-2.6 0-1.2-.7-1.9-2.1-2.9-2.2-1.4-3.7-2.2-3.7-4.5 0-2.6 1.9-4.3 5.3-4.3 3.2 0 4.8 1.3 4.8 3.9v.6H285v-.4c0-1.5-.6-2.2-2.3-2.2-1.5 0-2.5.8-2.5 2 0 1.4 1.4 1.9 3.1 3.1 1.9 1.3 2.8 2.4 2.8 4.3 0 3-2.2 4.9-5.8 4.9-3.1 0-4.7-1.3-4.7-3.7 0-.4.1-.9.2-1.3h2.5zm15 0c0 .3-.1.6-.1.8 0 1.4.8 2.2 2.3 2.2 1.7 0 2.8-1.2 2.8-2.6 0-1.2-.7-1.9-2.1-2.9-2.2-1.4-3.7-2.2-3.7-4.5 0-2.6 1.9-4.3 5.3-4.3 3.2 0 4.8 1.3 4.8 3.9v.6H300v-.4c0-1.5-.6-2.2-2.3-2.2-1.5 0-2.5.8-2.5 2 0 1.4 1.4 1.9 3.1 3.1 1.9 1.3 2.8 2.4 2.8 4.3 0 3-2.2 4.9-5.8 4.9-3.1 0-4.7-1.3-4.7-3.7 0-.4.1-.9.2-1.3h2.5z"/><path id="Registered_Mark_14_" class="st0" d="M335.9 155.8c.9.9 1.4 2.1 1.4 3.4 0 1.3-.5 2.5-1.4 3.4-1 .9-2.2 1.5-3.5 1.5-1.3 0-2.5-.5-3.4-1.4-.9-.9-1.4-2.1-1.4-3.4 0-1.3.5-2.5 1.4-3.5.9-.9 2.1-1.4 3.4-1.4s2.6.5 3.5 1.4zm-.3.3c-.8-.8-1.9-1.3-3.1-1.3-1.2 0-2.3.5-3.1 1.3-.8.9-1.3 2-1.3 3.1 0 1.2.5 2.2 1.3 3.1.8.8 1.9 1.3 3.1 1.3 1.1 0 2.3-.5 3.1-1.3.8-.8 1.3-1.9 1.3-3.1 0-1.2-.5-2.2-1.3-3.1zm-.7 1.8c0 .8-.5 1.4-1.3 1.5l1.3 2.6h-.9l-1.2-2.5h-1.4v2.5h-.8v-5.6h2c1.6-.1 2.3.4 2.3 1.5zm-3.6-1v2.1h1.1c1.2 0 1.7-.2 1.7-1.1 0-.7-.6-1-1.7-1h-1.1z"/></svg>