<svg id="OnTrac_Logo" xmlns="http://www.w3.org/2000/svg" viewBox="0 0 200 68"><style>.st2{fill:#00205c}</style><g id="Word_Mark"><g id="Word_Trac"><path id="Trac_c" class="st2" d="M181.4 51.3c0 5.6-2 8-5.6 8s-5.6-2.4-5.6-8v-18c0-5.6 2-8 5.6-8s5.6 2.4 5.6 8v1.2h10.2c-.2-10.4-4.4-17.6-15.8-17.6-11.6 0-15.8 7.4-15.8 18.2v14.4c0 10.8 4.2 18.2 15.8 18.2s15.8-7.4 15.8-18.2v-1.2h-10.2v3z"/><path id="Trac_a" class="st2" d="M155.6 30.1c0-8.8-5.4-13.2-14.8-13.2-9.6 0-15.8 5.4-16.4 15.2h10.2c.2-4.2 1.2-7 5.8-7 3.4 0 5 2.2 5 6.2v3c-14.6 5.6-21.6 11.6-21.6 22.4 0 6.2 3.4 11 10.4 11 5 0 8-1.6 11.8-4.8 0 1.2.4 2.4.6 3.8h9.8c-.2-1.6-.6-3.6-.6-5.2l-.2-31.4zm-10.2 24.6c-1.8 2.4-4 4.6-6.8 4.6-3 0-4.8-1.2-4.8-4.4 0-4.2 2.2-7.6 11.6-12.8v12.6z"/><path id="Trac_r" class="st2" d="M117.8 26.5c3 0 4.8.6 6.6 1V16.9h-2c-4.8 0-9 2.4-11.6 6.6h-.2v-5.6h-9.8v48.8H111V33.1c0-4.4 3.4-6.6 6.8-6.6z"/><path id="Trac_T" class="st2" d="M81.4 66.7h11.2V10.9h11V1.1H70.4v9.8h11z"/></g><g id="Word_On"><path id="On_n" class="st2" d="M61.4 16.9c-6 0-8 2.2-12.4 5.8v-4.8h-9.6v48.8h10.2V28.3c2.4-1.8 4.4-3 6.6-3s3.6 1 3.6 3.6v37.8H70V27.1c0-6.2-3.2-10.2-8.6-10.2z"/><path id="On_O" class="st2" d="M17.2.3C5.4.3 0 7.7 0 17.1v33.8c0 9.2 5.4 16.8 17.2 16.8s17.2-7.6 17.2-16.8V17.1C34.6 7.7 29 .3 17.2.3zm6 50.2c0 5-1.4 7.2-6 7.2s-6-2.4-6-7.2V17.3c0-5 1.4-7.2 6-7.2s6 2.4 6 7.2v33.2z"/></g></g><path id="Registered_Mark" class="st2" d="M199 12.1c.6.6 1 1.4 1 2.4s-.4 1.8-1 2.4-1.6 1-2.4 1c-1 0-1.8-.4-2.4-1-.6-.6-1-1.4-1-2.4 0-.8.4-1.8 1-2.4s1.4-1 2.4-1 1.8.2 2.4 1zm-.2.2c-.6-.6-1.4-1-2.2-1s-1.6.4-2.2.8c-.6.6-1 1.4-1 2.2 0 .8.4 1.6 1 2.2.6.6 1.4 1 2.2 1s1.6-.4 2.2-1c.6-.6.8-1.4.8-2.2 0-.6-.2-1.4-.8-2zm-.4 1.2c0 .6-.4 1-1 1l.8 1.8h-.6l-.8-1.8h-1v1.8h-.6v-4h1.4c1.2.2 1.8.4 1.8 1.2zm-2.6-.8v1.4h.8c.8 0 1.2-.2 1.2-.8 0-.4-.4-.8-1.2-.8l-.8.2z"/></svg>