<svg id="Capa_1" xmlns="http://www.w3.org/2000/svg" viewBox="0 0 60 60"><style>.st1{fill:#00205b}.st3{fill:#ffcd00}</style><circle cx="30" cy="30" r="30" fill="#b1b3cb"/><path class="st1" d="M39.5 7.5h-19c-1.8 0-3.3 1.5-3.3 3.3v38.5c0 1.8 1.5 3.3 3.3 3.3h18.9c1.8 0 3.3-1.5 3.3-3.3V10.7c0-1.8-1.4-3.2-3.2-3.2z"/><path d="M18.7 13.4h22.6v28.5H18.7zm1.8-4.5h18.9c1 0 1.8.8 1.8 1.8V12H18.7v-1.2c0-1 .8-1.9 1.8-1.9zm19 42.2h-19c-1 0-1.8-.8-1.8-1.8v-5.8h22.6v5.8c0 .9-.8 1.8-1.8 1.8z" fill="#fff"/><path class="st1" d="M30 44.3c-1.7 0-3 1.4-3 3s1.4 2.9 3 2.9c1.7 0 3-1.4 3-3s-1.3-2.9-3-2.9zm0 4.5c-.8 0-1.5-.7-1.5-1.5s.7-1.5 1.5-1.5 1.5.7 1.5 1.5c0 .9-.7 1.5-1.5 1.5zm-3-37.6h3c.5 0 .8-.3.8-.8s-.3-.8-.8-.8h-3c-.5 0-.8.3-.8.8.1.5.3.8.8.8zm5.3 0h.7c.5 0 .8-.3.8-.8s-.3-.8-.8-.8h-.8c-.5 0-.8.3-.8.8.1.5.4.8.9.8z"/><path class="st3" d="M50 10.9c-.3-.3-.8-.3-1 0-.3.3-.3.8 0 1 2.8 2.8 2.8 7.3 0 10.3-.3.3-.3.8 0 1 .1.1.3.2.6.2.1 0 .3-.1.6-.2 3.1-3.5 3.1-8.9-.2-12.3z"/><path class="st3" d="M46.8 12.5c-.3-.3-.8-.3-1 0-.3.3-.3.8 0 1 .9.9 1.5 2.1 1.5 3.5 0 1.2-.6 2.6-1.5 3.5-.3.3-.3.8 0 1 .1.1.3.2.6.2.1 0 .3-.1.6-.2 1.2-1.2 1.9-2.8 1.9-4.6-.1-1.8-.9-3-2.1-4.4zM11.1 12c.3-.3.3-.8 0-1-.3-.3-.8-.3-1 0-3.4 3.4-3.4 8.9 0 12.3.1.1.3.2.6.2s.3-.1.6-.2c.3-.3.3-.8 0-1-3.1-3-3.1-7.5-.2-10.3z"/><path class="st3" d="M14.2 12.4c-.3-.3-.8-.3-1 0-1.2 1.2-1.9 2.8-1.9 4.5 0 1.7.7 3.3 1.9 4.6.1.1.3.2.6.2.2 0 .3-.1.6-.2.3-.3.3-.8 0-1-.9-.9-1.5-2.1-1.5-3.5 0-1.2.6-2.6 1.5-3.5.1-.3.1-.7-.2-1.1z"/></svg>