<svg id="Layer_1" xmlns="http://www.w3.org/2000/svg" viewBox="0 0 60 60"><style>.st1{fill:#00205b}.st2{fill:#fff}</style><circle cx="30" cy="30" r="30" fill="#b1b3cb"/><path class="st1" d="M51.6 28.4l-7.2-7.2c-.7-.6-1.5-1-2.4-1h-4.5v-3c0-.5-.3-.8-.8-.8H8.2c-.4 0-.8.3-.8.8v20.2c0 .4.3.8.8.8h5.3c-.3 1.8.4 3.5 1.9 4.5s3.4 1 4.9 0 2.2-2.8 2-4.5h16.6c-.3 1.8.5 3.5 2 4.5s3.4 1 4.9 0 2.2-2.8 2-4.5h1.6c1.7 0 3-1.3 3-3v-4.7c.1-.7-.2-1.5-.8-2.1z"/><path class="st1" d="M26.1 18h4.2v6.4h-4.2zm0 7.8h4.2v5.7h-4.2zM20.4 18h4.2v6.4h-4.2zm0 7.8h4.2v5.7h-4.2zM14.7 18h4.2v6.4h-4.2zm0 7.8h4.2v5.7h-4.2zM9 18h4.2v6.4H9zm0 7.8h4.2v5.7H9z"/><circle class="st2" cx="18" cy="39" r="3"/><path class="st2" d="M36 36.7H21.9c-.8-1.4-2.2-2.2-3.9-2.2-1.6 0-3.1.8-3.9 2.2H9V33h27v3.7z"/><path class="st1" d="M31.8 25.8H36v5.7h-4.2zm0-7.8H36v6.4h-4.2z"/><path class="st2" d="M40.5 21.7H42c.5 0 1 .2 1.3.5l6.2 6.2h-9.1v-6.7z"/><circle class="st2" cx="43.5" cy="39" r="3"/><path class="st2" d="M51 35.2c0 .8-.7 1.5-1.5 1.5h-2.1c-.8-1.4-2.2-2.2-3.9-2.2s-3.1.8-3.9 2.2h-2.1v-15H39v7.5c0 .4.3.8.8.8h11.1c.1.2.2.4.2.6v4.6z"/><path d="M31.8 18H36v6.4h-4.2zm-5.7 0h4.2v6.4h-4.2zm0 7.8h4.2v5.7h-4.2zM9 25.8h4.2v5.7H9zm5.7 0h4.2v5.7h-4.2zm5.7 0h4.2v5.7h-4.2zm0-7.8h4.2v6.4h-4.2zm-5.7 0h4.2v6.4h-4.2zM9 18h4.2v6.4H9zm22.8 7.8H36v5.7h-4.2z" fill="#ffcd00"/></svg>